<svg xmlns="http://www.w3.org/2000/svg" viewBox="0 0 846.41 639.55"> 

	<defs>
		<style type="text/css"><![CDATA[


            #drone {
				transform-origin: 50% 50%;
				animation: hoverbf 5s infinite;
			}

            #icon-1 {
                animation: flicker 3.5s ease infinite;
            }
            #icon-2 {
                animation: flicker 1s ease infinite;
            }
            #icon-3 {
                animation: flicker 3.5s ease infinite;
            }
            #icon-4 {
                animation: flicker 1s ease infinite;
            }
            #icon-5 {
                animation: flicker 1s ease infinite;
            }
            #icon-6 {
               animation: flicker 3.5s ease infinite;
            }
            #icon-7 {
                animation: flicker 2s ease infinite;
            }
            #icon-8 {
              animation: flicker 1s ease infinite;
            }
            #icon-9 {
                animation: flicker 3s ease infinite;
            }
            #icon-10 {
               animation: flicker 1s ease infinite;
            }
            #icon-11 {
                animation: flicker 3s ease infinite;
            }
            #icon-12 {
                animation: flicker 2s ease infinite;
            }
           




@-webkit-keyframes hoverbf {
  0% {
    -webkit-transform: translateX(0%);  
  }
  50% {
    -webkit-transform: translateX(2%);  
  } 
  100% {
    -webkit-transform: translateX(0%);
  }     
}



@-webkit-keyframes flicker {
  0% {
    opacity:1;
  }

  50% {
    opacity:1;
  }
  51% {
    opacity:0;
  }
  54% {
    opacity: 0;
  }
  55% {
    opacity: 1;
  }
  100% {
    opacity:1;
  }
}

		]]></style>
	</defs>




	<title>td-unmanned</title>





<g id="city"><g opacity="0.11"><path d="M785.45,443.22l-18.46,0v10.42l-3.54-1-.31-13.66V417.29H759.5v-3.08h-4v-2.69h0a.26.26,0,0,0,.28-.24.25.25,0,0,0-.28-.24h0l-6.34-5.11h.06V404.5H748l-.33-6.37h-.08l-.33,6.37h-1.21v1.43L739.75,411h0a.25.25,0,0,0-.28.24.26.26,0,0,0,.28.24h0v2.69h-3.54v14h0V417.29h-3.63V428.6H724v-2.5h-2.87v-2.77H719V416.2h-1.08v7.13h-1.09v-4.66H715.7v4.66H689.92v2.77h-2.87v15.17H669.74V411.42h-2.51v-2.08h-1.78v-1.57l-3.29,1.4h-.41v1.56h-7.51v2.09h-2.5v11.6l-10.4-3.19h-.27l-13.07,4v-.61h-.81v-.82H628v-1h-.81V422H628v-1h-.81v-.82H628v-1h-.81v-.81H628v-1h-.81v-.81H628v-1h-.81v-.82H628v-1h-.81V413H628v-1h-.81v-.82H628v-1h-.81v-.81H628v-1h-.81v-.82H628v-1h-.81v-1.43H624v-4.57H622.8v-4.67l-1.43.21V395h-7.21v2.21l-1.42.22v3.13h-1.25v4.57h-2.81v1.43h-1.06v1h1.06v.82h-1.06v1h1.06v.81h-1.06v1h1.06V412h-1.06v1h1.06v.81h-1.06v1h1.06v.82h-1.06v1h1.06v.81h-1.06v1h1.06v.81h-1.06v1h1.06V421h-1.06v1h1.06v.81h-1.06v1h1.06v.82h-.94v-.71H606.3v4.38H589.1V413.54h-3.49v-9.07h-.05l-5.68-5.86h-1.39V394h0l-.52-4.31h0l-.53,4.31h0v4.65H576l-5.67,5.86h-.06v9.07h-3.48v7.87H550.63v-25.8h-2.57a2.17,2.17,0,0,0-2.25-1.83h-1.25v-5h-.51v5h-1.26a2.18,2.18,0,0,0-2.25,1.83H538v16.85l-6.74,7.47v11.46H519.55V416.34h-3.76v-2.56h.05a.23.23,0,1,0,0-.46H500a.23.23,0,1,0,0,.46h0v2.56h-3.75v23.12H476V420.75H464.9V398.58l-16.38-11.34v33.51H437.4V407.86H418.68v-7.22h-2.34v7.22H400V395h-4.1v12.89h-6.44V389.3h-19.3v25.78h-19.9v13.3H336.56V405.26H332.8v-2.57h.05a.24.24,0,0,0,.26-.23.25.25,0,0,0-.26-.23h-2.44v-4.14h-2.08l-2.38-1.9h-1.22l-.33-6.07h-.08l-.33,6.07h-1.21l-2.39,1.9h-2.07v4.14H317a.25.25,0,0,0-.26.23.24.24,0,0,0,.26.23h0v2.57h-3.76v15H301.58V408.85l-6.74-7.48V384.53h-2.57A2.16,2.16,0,0,0,290,382.7h-1.25v-5h-.51v5H287a2.15,2.15,0,0,0-2.24,1.83h-2.57v25.8H266.07v-7.87h-3.49v-9.07h-.05l-5.68-5.86h-1.39v-4.65h0l-.53-4.31h0l-.53,4.31h0v4.65h-1.39l-5.68,5.86h0v9.07h-3.49V417.2h-17.2v-4.37h-1.45v.7h-.93v-.81h1.05v-1h-1.05v-.82h1.05v-1h-1.05v-.81h1.05v-1h-1.05v-.82h1.05v-1h-1.05v-.81h1.05v-1h-1.05v-.81h1.05v-1h-1.05v-.82h1.05v-1h-1.05v-.81h1.05v-1h-1.05v-.82h1.05v-1h-1.05v-.81h1.05v-1h-1.05v-1.43h-2.82v-4.57h-1.24v-3.14l-1.43-.22v-2.2h-7.2V385L210,384.8v4.68h-1.24v4.57h-3.15v1.43h-.81v1h.81v.81h-.81v1h.81v.82h-.81v1h.81v.81h-.81v1h.81v.82h-.81v1h.81v.81h-.81v1h.81v.81h-.81v1h.81v.82h-.81v1h.81v.81h-.81v1h.81v.82h-.81v1h.81v.81h-.81v.62l-13.07-4h-.27l-10.4,3.19v-11.6h-2.5v-2.09h-7.51v-1.57h-3.7v1.57h-1.79v2.08h-2.5v29.84H145.77V416.41H142.9v-2.77H117.12V409H116v4.66H115v-7.13h-1.08v7.13h-2.22v2.77h-2.87v6.65h-8.51V407.6H96.64v10.95h0v-14H93.07v-2.69h0a.27.27,0,0,0,.28-.24.26.26,0,0,0-.28-.24h0l-6.34-5.11v-2.82H85.52L85.18,387h-.07l-.34,6.38H83.56v2.82h.06l-6.33,5.11h0a.25.25,0,0,0-.27.24.26.26,0,0,0,.27.24h0v2.69h-4v3.08H69.68v21.64l-6.87,9.2.28,37.37-10,.54V463.44l-38,13.88V544l6.17,19.84,807.55-22.59L809.45,501V457.46H791.61v5.69h-.82l-5.24-1.93ZM225.07,417.14h-.93v-.81h.93Zm0-1.8h-.93v-.82h.93Zm383.61,12.89h-.93v-.82h.93Zm0-1.81h-.93v-.81h.93Z" transform="translate(-6.78 -10.82)" fill="#6690cb"/><rect x="108.23" y="440.8" width="0.9" height="6.69" fill="#3e3e3d"/><path d="M117.38,455c0,.55-.86,1-1.91,1s-1.92-.46-1.92-1,.86-1,1.92-1,1.91.45,1.91,1" transform="translate(-6.78 -10.82)" fill="#3e3e3d"/><path d="M117.38,453.34c0,.56-.86,1-1.91,1s-1.92-.45-1.92-1,.86-1,1.92-1,1.91.45,1.91,1" transform="translate(-6.78 -10.82)" fill="#3e3e3d"/><rect x="74.12" y="440.8" width="0.9" height="6.69" fill="#3e3e3d"/><path d="M83.27,455c0,.55-.86,1-1.92,1s-1.92-.46-1.92-1,.86-1,1.92-1,1.92.45,1.92,1" transform="translate(-6.78 -10.82)" fill="#3e3e3d"/><path d="M83.27,453.34c0,.56-.86,1-1.92,1s-1.92-.45-1.92-1,.86-1,1.92-1,1.92.45,1.92,1" transform="translate(-6.78 -10.82)" fill="#3e3e3d"/><rect x="88.58" y="302.23" width="6.28" height="250.77" fill="#472e24"/><path d="M122.57,346.63c-.83,0-1.5.21-1.5.46h3c0-.25-.68-.46-1.51-.46" transform="translate(-6.78 -10.82)" fill="#3e3e3d"/><path d="M122.57,345.73c-.26,0-.47.38-.5.88h1c0-.5-.24-.88-.5-.88" transform="translate(-6.78 -10.82)" fill="#3e3e3d"/><path d="M122.57,345.21c-.83,0-1.5.21-1.5.46h3c0-.25-.68-.46-1.51-.46" transform="translate(-6.78 -10.82)" fill="#3e3e3d"/><path d="M122.57,344.3c-.26,0-.47.39-.5.88h1c0-.49-.24-.88-.5-.88" transform="translate(-6.78 -10.82)" fill="#3e3e3d"/><path d="M122.57,343.79c-.83,0-1.5.2-1.5.46h3c0-.26-.68-.46-1.51-.46" transform="translate(-6.78 -10.82)" fill="#3e3e3d"/><path d="M122.57,342.88c-.26,0-.47.39-.5.88h1c0-.49-.24-.88-.5-.88" transform="translate(-6.78 -10.82)" fill="#3e3e3d"/><path d="M122.57,342.37c-.83,0-1.5.2-1.5.45h3c0-.25-.68-.45-1.51-.45" transform="translate(-6.78 -10.82)" fill="#3e3e3d"/><path d="M122.57,341.46c-.26,0-.47.39-.5.88h1c0-.49-.24-.88-.5-.88" transform="translate(-6.78 -10.82)" fill="#3e3e3d"/><path d="M122.57,341c-.83,0-1.5.2-1.5.45h3c0-.25-.68-.45-1.51-.45" transform="translate(-6.78 -10.82)" fill="#3e3e3d"/><path d="M122.57,340c-.26,0-.47.38-.5.88h1c0-.5-.24-.88-.5-.88" transform="translate(-6.78 -10.82)" fill="#3e3e3d"/><path d="M122.57,339.52c-.83,0-1.5.21-1.5.46h3c0-.25-.68-.46-1.51-.46" transform="translate(-6.78 -10.82)" fill="#3e3e3d"/><path d="M122.57,338.62c-.26,0-.47.38-.5.88h1c0-.5-.24-.88-.5-.88" transform="translate(-6.78 -10.82)" fill="#3e3e3d"/><path d="M122.57,338.1c-.83,0-1.5.21-1.5.46h3c0-.25-.68-.46-1.51-.46" transform="translate(-6.78 -10.82)" fill="#3e3e3d"/><path d="M122.57,337.19c-.26,0-.47.39-.5.88h1c0-.49-.24-.88-.5-.88" transform="translate(-6.78 -10.82)" fill="#3e3e3d"/><path d="M74.18,346.34c-.83,0-1.5.2-1.5.45h3c0-.25-.68-.45-1.51-.45" transform="translate(-6.78 -10.82)" fill="#3e3e3d"/><path d="M74.18,345.43c-.26,0-.47.38-.5.88h1c0-.5-.24-.88-.5-.88" transform="translate(-6.78 -10.82)" fill="#3e3e3d"/><path d="M74.18,344.91c-.83,0-1.5.21-1.5.46h3c0-.25-.68-.46-1.51-.46" transform="translate(-6.78 -10.82)" fill="#3e3e3d"/><path d="M74.18,344c-.26,0-.47.38-.5.88h1c0-.5-.24-.88-.5-.88" transform="translate(-6.78 -10.82)" fill="#3e3e3d"/><path d="M74.18,343.49c-.83,0-1.5.21-1.5.46h3c0-.25-.68-.46-1.51-.46" transform="translate(-6.78 -10.82)" fill="#3e3e3d"/><path d="M74.18,342.58c-.26,0-.47.39-.5.88h1c0-.49-.24-.88-.5-.88" transform="translate(-6.78 -10.82)" fill="#3e3e3d"/><path d="M74.18,342.07c-.83,0-1.5.2-1.5.46h3c0-.26-.68-.46-1.51-.46" transform="translate(-6.78 -10.82)" fill="#3e3e3d"/><path d="M74.18,341.16c-.26,0-.47.39-.5.88h1c0-.49-.24-.88-.5-.88" transform="translate(-6.78 -10.82)" fill="#3e3e3d"/><path d="M74.18,340.65c-.83,0-1.5.2-1.5.46h3c0-.26-.68-.46-1.51-.46" transform="translate(-6.78 -10.82)" fill="#3e3e3d"/><path d="M74.18,339.74c-.26,0-.47.39-.5.88h1c0-.49-.24-.88-.5-.88" transform="translate(-6.78 -10.82)" fill="#3e3e3d"/><path d="M74.18,339.23c-.83,0-1.5.2-1.5.45h3c0-.25-.68-.45-1.51-.45" transform="translate(-6.78 -10.82)" fill="#3e3e3d"/><path d="M74.18,338.32c-.26,0-.47.39-.5.88h1c0-.49-.24-.88-.5-.88" transform="translate(-6.78 -10.82)" fill="#3e3e3d"/><path d="M74.18,337.81c-.83,0-1.5.2-1.5.45h3c0-.25-.68-.45-1.51-.45" transform="translate(-6.78 -10.82)" fill="#3e3e3d"/><path d="M74.18,336.9c-.26,0-.47.38-.5.88h1c0-.5-.24-.88-.5-.88" transform="translate(-6.78 -10.82)" fill="#3e3e3d"/><rect x="66.02" y="322.69" width="51.41" height="3.58" fill="#472e24"/><path d="M122.57,382c-.83,0-1.5.2-1.5.46h3c0-.26-.68-.46-1.51-.46" transform="translate(-6.78 -10.82)" fill="#3e3e3d"/><path d="M122.57,381.05c-.26,0-.47.39-.5.88h1c0-.49-.24-.88-.5-.88" transform="translate(-6.78 -10.82)" fill="#3e3e3d"/><path d="M122.57,380.54c-.83,0-1.5.2-1.5.46h3c0-.26-.68-.46-1.51-.46" transform="translate(-6.78 -10.82)" fill="#3e3e3d"/><path d="M122.57,379.63c-.26,0-.47.39-.5.88h1c0-.49-.24-.88-.5-.88" transform="translate(-6.78 -10.82)" fill="#3e3e3d"/><path d="M122.57,379.12c-.83,0-1.5.2-1.5.45h3c0-.25-.68-.45-1.51-.45" transform="translate(-6.78 -10.82)" fill="#3e3e3d"/><path d="M122.57,378.21c-.26,0-.47.38-.5.88h1c0-.5-.24-.88-.5-.88" transform="translate(-6.78 -10.82)" fill="#3e3e3d"/><path d="M122.57,377.7c-.83,0-1.5.2-1.5.45h3c0-.25-.68-.45-1.51-.45" transform="translate(-6.78 -10.82)" fill="#3e3e3d"/><path d="M122.57,376.79c-.26,0-.47.38-.5.88h1c0-.5-.24-.88-.5-.88" transform="translate(-6.78 -10.82)" fill="#3e3e3d"/><path d="M122.57,376.27c-.83,0-1.5.21-1.5.46h3c0-.25-.68-.46-1.51-.46" transform="translate(-6.78 -10.82)" fill="#3e3e3d"/><path d="M122.57,375.37c-.26,0-.47.38-.5.88h1c0-.5-.24-.88-.5-.88" transform="translate(-6.78 -10.82)" fill="#3e3e3d"/><path d="M122.57,374.85c-.83,0-1.5.21-1.5.46h3c0-.25-.68-.46-1.51-.46" transform="translate(-6.78 -10.82)" fill="#3e3e3d"/><path d="M122.57,373.94c-.26,0-.47.39-.5.88h1c0-.49-.24-.88-.5-.88" transform="translate(-6.78 -10.82)" fill="#3e3e3d"/><path d="M122.57,373.43c-.83,0-1.5.2-1.5.46h3c0-.26-.68-.46-1.51-.46" transform="translate(-6.78 -10.82)" fill="#3e3e3d"/><path d="M122.57,372.52c-.26,0-.47.39-.5.88h1c0-.49-.24-.88-.5-.88" transform="translate(-6.78 -10.82)" fill="#3e3e3d"/><path d="M74.18,381.66c-.83,0-1.5.21-1.5.46h3c0-.25-.68-.46-1.51-.46" transform="translate(-6.78 -10.82)" fill="#3e3e3d"/><path d="M74.18,380.76c-.26,0-.47.38-.5.88h1c0-.5-.24-.88-.5-.88" transform="translate(-6.78 -10.82)" fill="#3e3e3d"/><path d="M74.18,380.24c-.83,0-1.5.21-1.5.46h3c0-.25-.68-.46-1.51-.46" transform="translate(-6.78 -10.82)" fill="#3e3e3d"/><path d="M74.18,379.33c-.26,0-.47.39-.5.88h1c0-.49-.24-.88-.5-.88" transform="translate(-6.78 -10.82)" fill="#3e3e3d"/><path d="M74.18,378.82c-.83,0-1.5.2-1.5.46h3c0-.26-.68-.46-1.51-.46" transform="translate(-6.78 -10.82)" fill="#3e3e3d"/><path d="M74.18,377.91c-.26,0-.47.39-.5.88h1c0-.49-.24-.88-.5-.88" transform="translate(-6.78 -10.82)" fill="#3e3e3d"/><path d="M74.18,377.4c-.83,0-1.5.2-1.5.46h3c0-.26-.68-.46-1.51-.46" transform="translate(-6.78 -10.82)" fill="#3e3e3d"/><path d="M74.18,376.49c-.26,0-.47.39-.5.88h1c0-.49-.24-.88-.5-.88" transform="translate(-6.78 -10.82)" fill="#3e3e3d"/><path d="M74.18,376c-.83,0-1.5.2-1.5.45h3c0-.25-.68-.45-1.51-.45" transform="translate(-6.78 -10.82)" fill="#3e3e3d"/><path d="M74.18,375.07c-.26,0-.47.38-.5.88h1c0-.5-.24-.88-.5-.88" transform="translate(-6.78 -10.82)" fill="#3e3e3d"/><path d="M74.18,374.56c-.83,0-1.5.2-1.5.45h3c0-.25-.68-.45-1.51-.45" transform="translate(-6.78 -10.82)" fill="#3e3e3d"/><path d="M74.18,373.65c-.26,0-.47.38-.5.88h1c0-.5-.24-.88-.5-.88" transform="translate(-6.78 -10.82)" fill="#3e3e3d"/><path d="M74.18,373.13c-.83,0-1.5.21-1.5.46h3c0-.25-.68-.46-1.51-.46" transform="translate(-6.78 -10.82)" fill="#3e3e3d"/><path d="M74.18,372.23c-.26,0-.47.38-.5.88h1c0-.5-.24-.88-.5-.88" transform="translate(-6.78 -10.82)" fill="#3e3e3d"/><rect x="66.02" y="358.01" width="51.41" height="3.58" fill="#472e24"/><path d="M122.57,417.29c-.83,0-1.5.2-1.5.46h3c0-.26-.68-.46-1.51-.46" transform="translate(-6.78 -10.82)" fill="#3e3e3d"/><path d="M122.57,416.38c-.26,0-.47.39-.5.88h1c0-.49-.24-.88-.5-.88" transform="translate(-6.78 -10.82)" fill="#3e3e3d"/><path d="M122.57,415.87c-.83,0-1.5.2-1.5.45h3c0-.25-.68-.45-1.51-.45" transform="translate(-6.78 -10.82)" fill="#3e3e3d"/><path d="M122.57,415c-.26,0-.47.38-.5.88h1c0-.5-.24-.88-.5-.88" transform="translate(-6.78 -10.82)" fill="#3e3e3d"/><path d="M122.57,414.44c-.83,0-1.5.21-1.5.46h3c0-.25-.68-.46-1.51-.46" transform="translate(-6.78 -10.82)" fill="#3e3e3d"/><path d="M122.57,413.54c-.26,0-.47.38-.5.88h1c0-.5-.24-.88-.5-.88" transform="translate(-6.78 -10.82)" fill="#3e3e3d"/><path d="M122.57,413c-.83,0-1.5.21-1.5.46h3c0-.25-.68-.46-1.51-.46" transform="translate(-6.78 -10.82)" fill="#3e3e3d"/><path d="M122.57,412.11c-.26,0-.47.39-.5.89h1c0-.5-.24-.89-.5-.89" transform="translate(-6.78 -10.82)" fill="#3e3e3d"/><path d="M122.57,411.6c-.83,0-1.5.21-1.5.46h3c0-.25-.68-.46-1.51-.46" transform="translate(-6.78 -10.82)" fill="#3e3e3d"/><path d="M122.57,410.69c-.26,0-.47.39-.5.88h1c0-.49-.24-.88-.5-.88" transform="translate(-6.78 -10.82)" fill="#3e3e3d"/><path d="M122.57,410.18c-.83,0-1.5.2-1.5.46h3c0-.26-.68-.46-1.51-.46" transform="translate(-6.78 -10.82)" fill="#3e3e3d"/><path d="M122.57,409.27c-.26,0-.47.39-.5.88h1c0-.49-.24-.88-.5-.88" transform="translate(-6.78 -10.82)" fill="#3e3e3d"/><path d="M122.57,408.76c-.83,0-1.5.2-1.5.45h3c0-.25-.68-.45-1.51-.45" transform="translate(-6.78 -10.82)" fill="#3e3e3d"/><path d="M122.57,407.85c-.26,0-.47.39-.5.88h1c0-.49-.24-.88-.5-.88" transform="translate(-6.78 -10.82)" fill="#3e3e3d"/><path d="M74.18,417c-.83,0-1.5.21-1.5.46h3c0-.25-.68-.46-1.51-.46" transform="translate(-6.78 -10.82)" fill="#3e3e3d"/><path d="M74.18,416.08c-.26,0-.47.39-.5.88h1c0-.49-.24-.88-.5-.88" transform="translate(-6.78 -10.82)" fill="#3e3e3d"/><path d="M74.18,415.57c-.83,0-1.5.2-1.5.46h3c0-.26-.68-.46-1.51-.46" transform="translate(-6.78 -10.82)" fill="#3e3e3d"/><path d="M74.18,414.66c-.26,0-.47.39-.5.88h1c0-.49-.24-.88-.5-.88" transform="translate(-6.78 -10.82)" fill="#3e3e3d"/><path d="M74.18,414.15c-.83,0-1.5.2-1.5.45h3c0-.25-.68-.45-1.51-.45" transform="translate(-6.78 -10.82)" fill="#3e3e3d"/><path d="M74.18,413.24c-.26,0-.47.39-.5.88h1c0-.49-.24-.88-.5-.88" transform="translate(-6.78 -10.82)" fill="#3e3e3d"/><path d="M74.18,412.73c-.83,0-1.5.2-1.5.45h3c0-.25-.68-.45-1.51-.45" transform="translate(-6.78 -10.82)" fill="#3e3e3d"/><path d="M74.18,411.82c-.26,0-.47.38-.5.88h1c0-.5-.24-.88-.5-.88" transform="translate(-6.78 -10.82)" fill="#3e3e3d"/><path d="M74.18,411.3c-.83,0-1.5.21-1.5.46h3c0-.25-.68-.46-1.51-.46" transform="translate(-6.78 -10.82)" fill="#3e3e3d"/><path d="M74.18,410.4c-.26,0-.47.38-.5.88h1c0-.5-.24-.88-.5-.88" transform="translate(-6.78 -10.82)" fill="#3e3e3d"/><path d="M74.18,409.88c-.83,0-1.5.21-1.5.46h3c0-.25-.68-.46-1.51-.46" transform="translate(-6.78 -10.82)" fill="#3e3e3d"/><path d="M74.18,409c-.26,0-.47.38-.5.88h1c0-.5-.24-.88-.5-.88" transform="translate(-6.78 -10.82)" fill="#3e3e3d"/><path d="M74.18,408.46c-.83,0-1.5.21-1.5.46h3c0-.25-.68-.46-1.51-.46" transform="translate(-6.78 -10.82)" fill="#3e3e3d"/><path d="M74.18,407.55c-.26,0-.47.39-.5.88h1c0-.49-.24-.88-.5-.88" transform="translate(-6.78 -10.82)" fill="#3e3e3d"/><rect x="66.02" y="393.34" width="51.41" height="3.58" fill="#472e24"/><rect x="72.85" y="446.48" width="37.75" height="3.58" fill="#472e24"/></g></g>

<g id="drone"><polygon points="368.54 141.93 87.77 552.89 715.88 539.45 409.72 141.63 387.68 116.62 368.54 141.93" fill="#e8e7e7" opacity="0.42"/><path d="M430.64,17.8c15.24.53,36.87.69,55.44-.15V15.42c-19.42-.1-41.26.48-55.44,2.38" transform="translate(-6.78 -10.82)" fill="#59595c" fill-rule="evenodd"/><path d="M541.52,17.8c-15.24.53-36.87.69-55.44-.15V15.42c19.42-.1,41.26.48,55.44,2.38" transform="translate(-6.78 -10.82)" fill="#59595c" fill-rule="evenodd"/><path d="M367.46,17.8c-15.24.53-36.86.69-55.43-.15V15.42c19.42-.1,41.26.48,55.43,2.38" transform="translate(-6.78 -10.82)" fill="#59595c" fill-rule="evenodd"/><path d="M256.59,17.8c15.24.53,36.87.69,55.44-.15V15.42c-19.42-.1-41.27.48-55.44,2.38" transform="translate(-6.78 -10.82)" fill="#59595c" fill-rule="evenodd"/><rect x="369.52" y="50.32" width="9.81" height="15.12" fill="#48484a"/><rect x="369.52" y="65.44" width="9.81" height="13.28" fill="#59595c"/><rect x="367.51" y="61.9" width="13.85" height="7.09" fill="#6d6f70"/><path d="M384.18,89.54h-16.9a2,2,0,0,0-1.95,2v6.1a2,2,0,0,0,1.95,2h16.9Z" transform="translate(-6.78 -10.82)" fill="#59595c" fill-rule="evenodd"/><path d="M367.23,91.89h3.59a.73.73,0,0,1,0,1.46h-3.59a.73.73,0,0,1,0-1.46" transform="translate(-6.78 -10.82)" fill="#6d6f70" fill-rule="evenodd"/><path d="M372.62,85.88h17.19a2,2,0,0,1,2,2v12.75a2,2,0,0,1-2,2H372.62a2,2,0,0,1-2-2V87.91a2,2,0,0,1,2-2" transform="translate(-6.78 -10.82)" fill="#6d6f70" fill-rule="evenodd"/><path d="M381.21,87.92a6.37,6.37,0,1,1-6.36,6.37,6.37,6.37,0,0,1,6.36-6.37" transform="translate(-6.78 -10.82)" fill="#e5e6e6" fill-rule="evenodd"/><path d="M381.21,99.44a5.16,5.16,0,1,0-5.15-5.16,5.17,5.17,0,0,0,5.15,5.16" transform="translate(-6.78 -10.82)" fill="#59595c" fill-rule="evenodd"/><path d="M381.21,96.78a2.5,2.5,0,1,0-2.49-2.5,2.49,2.49,0,0,0,2.49,2.5" transform="translate(-6.78 -10.82)" fill="#6d6f70" fill-rule="evenodd"/><path d="M381.21,96.19a1.91,1.91,0,1,0-1.91-1.91,1.9,1.9,0,0,0,1.91,1.91" transform="translate(-6.78 -10.82)" fill="#414141" fill-rule="evenodd"/><rect x="402.18" y="50.32" width="15.04" height="23.18" fill="#48484a"/><rect x="402.18" y="73.5" width="15.04" height="20.35" fill="#59595c"/><rect x="399.09" y="68.07" width="21.23" height="10.86" fill="#6d6f70"/><path d="M420.94,104.68H395a3,3,0,0,0-3,3V117a3,3,0,0,0,3,3h25.91Z" transform="translate(-6.78 -10.82)" fill="#59595c" fill-rule="evenodd"/><path d="M395,108.27h5.51a1.13,1.13,0,0,1,0,2.25H395a1.13,1.13,0,0,1,0-2.25" transform="translate(-6.78 -10.82)" fill="#6d6f70" fill-rule="evenodd"/><path d="M403.32,99.06h26.34a3.12,3.12,0,0,1,3.12,3.12v19.54a3.12,3.12,0,0,1-3.12,3.12H403.32a3.12,3.12,0,0,1-3.12-3.12V102.18a3.12,3.12,0,0,1,3.12-3.12" transform="translate(-6.78 -10.82)" fill="#6d6f70" fill-rule="evenodd"/><path d="M416.49,102.19a9.76,9.76,0,1,1-9.76,9.76,9.76,9.76,0,0,1,9.76-9.76" transform="translate(-6.78 -10.82)" fill="#e5e6e6" fill-rule="evenodd"/><path d="M416.49,119.85a7.91,7.91,0,1,0-7.91-7.9,7.92,7.92,0,0,0,7.91,7.9" transform="translate(-6.78 -10.82)" fill="#59595c" fill-rule="evenodd"/><path d="M416.49,115.77a3.82,3.82,0,1,0-3.82-3.82,3.83,3.83,0,0,0,3.82,3.82" transform="translate(-6.78 -10.82)" fill="#6d6f70" fill-rule="evenodd"/><path d="M416.49,114.88a2.93,2.93,0,1,0-2.93-2.93,2.94,2.94,0,0,0,2.93,2.93" transform="translate(-6.78 -10.82)" fill="#414141" fill-rule="evenodd"/><path d="M486.08,17A3.09,3.09,0,1,0,483,13.91,3.09,3.09,0,0,0,486.08,17" transform="translate(-6.78 -10.82)" fill="#919395" fill-rule="evenodd"/><rect x="474.26" y="1.2" width="10.07" height="11.02" fill="#59595c"/><rect x="434.78" y="52.24" width="4.98" height="33.84" transform="translate(98.43 351.12) rotate(-50.39)" fill="#48484a"/><path d="M463.35,128,435.16,52.19l7.38-2.74,28.19,75.85c1.81,4.87-5.56,7.61-7.38,2.74" transform="translate(-6.78 -10.82)" fill="#6d6f70" fill-rule="evenodd"/><rect x="470.82" y="9.62" width="16.95" height="18.94" fill="#6d6f70"/><path d="M488,52a5.07,5.07,0,0,0,4.33-3.14l1.4-3.67H459.5l-3.93,2.28,1.82,1.39A13.09,13.09,0,0,0,466.67,52Z" transform="translate(-6.78 -10.82)" fill="#7ec247" fill-rule="evenodd"/><path d="M497.29,32.48H473.23c-10.88,0-16.45,1.76-26.39,4.89l-29.54,9.3,2.5,22.71,40-23.09h35.12a3.9,3.9,0,0,0,3.68-3.14l1.3-7.53a2.59,2.59,0,0,0-2.6-3.14" transform="translate(-6.78 -10.82)" fill="#59595c" fill-rule="evenodd"/><path d="M389.18,33.64h19.74a3.09,3.09,0,0,1,2.2,1.3L420.84,49H377.27L387,34.94a3.09,3.09,0,0,1,2.19-1.3" transform="translate(-6.78 -10.82)" fill="#59595c" fill-rule="evenodd"/><path d="M312,17a3.09,3.09,0,1,0-3.09-3.09A3.09,3.09,0,0,0,312,17" transform="translate(-6.78 -10.82)" fill="#919395" fill-rule="evenodd"/><rect x="300.21" y="1.2" width="10.07" height="11.02" fill="#59595c"/><rect x="343.92" y="66.66" width="33.84" height="4.98" transform="translate(31.97 235.1) rotate(-39.61)" fill="#48484a"/><path d="M334.75,128,363,52.19l-7.38-2.74L327.38,125.3c-1.81,4.87,5.56,7.61,7.37,2.74" transform="translate(-6.78 -10.82)" fill="#6d6f70" fill-rule="evenodd"/><rect x="296.77" y="9.62" width="16.95" height="18.94" fill="#6d6f70"/><path d="M310.14,52a5.09,5.09,0,0,1-4.34-3.14l-1.39-3.67H338.6l3.94,2.28-1.83,1.39A13.05,13.05,0,0,1,331.44,52Z" transform="translate(-6.78 -10.82)" fill="#7ec247" fill-rule="evenodd"/><path d="M300.82,32.48h24.06c10.88,0,16.45,1.76,26.39,4.89l29.54,9.3-2.5,22.71-40-23.09H303.19a3.89,3.89,0,0,1-3.67-3.14l-1.3-7.53a2.58,2.58,0,0,1,2.6-3.14" transform="translate(-6.78 -10.82)" fill="#59595c" fill-rule="evenodd"/><path d="M385.31,71.58h27.48a12.34,12.34,0,0,0,12.31-12.3V54.9a12.34,12.34,0,0,0-12.31-12.3H385.31A12.34,12.34,0,0,0,373,54.9v4.38a12.34,12.34,0,0,0,12.3,12.3" transform="translate(-6.78 -10.82)" fill="#6d6f70" fill-rule="evenodd"/><path d="M82.7,706.8" transform="translate(-6.78 -10.82)" fill="none" stroke="#d0d2d3" stroke-miterlimit="10"/><path d="M119.59,649.94" transform="translate(-6.78 -10.82)" fill="none" stroke="#d0d2d3" stroke-miterlimit="10"/></g>

<g id="landscape"><path d="M27.5,536.16c26.8-47,127.61-61.65,234.85-67.83,94.29-5.44,199-9.6,262.81,13.31l-7.92,69.58L7.61,586.38S.57,583.4,27.5,536.16Z" transform="translate(-6.78 -10.82)" fill="#b8d3a6"/><path d="M434.19,478.7s148.13-37.23,342.18,32.61L436.51,547.86Z" transform="translate(-6.78 -10.82)" fill="#abcc95"/><path d="M326.3,506.33a22.54,22.54,0,1,1-22.54-22.67,22.6,22.6,0,0,1,22.54,22.67" transform="translate(-6.78 -10.82)" fill="#90bb74"/><path d="M292,514.48a22.54,22.54,0,1,1-22.54-22.68A22.6,22.6,0,0,1,292,514.48" transform="translate(-6.78 -10.82)" fill="#90bb74"/><path d="M350.57,499.73c0,12.75-8.9,23.09-19.87,23.09s-19.88-10.34-19.88-23.09,8.9-23.11,19.88-23.11,19.87,10.34,19.87,23.11" transform="translate(-6.78 -10.82)" fill="#90bb74"/><path d="M367.26,493.55c0,9.35-5.55,16.93-12.39,16.93s-12.38-7.58-12.38-16.93,5.54-16.93,12.38-16.93,12.39,7.58,12.39,16.93" transform="translate(-6.78 -10.82)" fill="#90bb74"/><path d="M386.87,504.89c0,9.35-5.54,16.93-12.39,16.93s-12.38-7.58-12.38-16.93S367.64,488,374.48,488s12.39,7.58,12.39,16.93" transform="translate(-6.78 -10.82)" fill="#90bb74"/><path d="M399.26,502.46c0,9.35-5.55,16.93-12.39,16.93s-12.38-7.58-12.38-16.93,5.54-16.93,12.38-16.93,12.39,7.58,12.39,16.93" transform="translate(-6.78 -10.82)" fill="#90bb74"/><path d="M440.64,497c0,12.54-11,22.7-24.52,22.7S391.59,509.5,391.59,497s11-22.69,24.53-22.69,24.52,10.16,24.52,22.69" transform="translate(-6.78 -10.82)" fill="#90bb74"/><path d="M480.14,504.86c0,13-11.35,23.47-25.35,23.47s-25.35-10.51-25.35-23.47,11.35-23.46,25.35-23.46,25.35,10.5,25.35,23.46" transform="translate(-6.78 -10.82)" fill="#90bb74"/><path d="M543.59,490.92c0,32.5-20.34,58.84-45.44,58.84s-45.44-26.34-45.44-58.84,20.35-58.85,45.44-58.85,45.44,26.35,45.44,58.85" transform="translate(-6.78 -10.82)" fill="#90bb74"/><path d="M797.91,520.07c0,11.33-3.26,20.52-7.29,20.52s-7.29-9.19-7.29-20.52,3.26-20.52,7.29-20.52,7.29,9.19,7.29,20.52" transform="translate(-6.78 -10.82)" fill="#90bb74"/><path d="M737.61,518.74c0,18.88-9.17,34.18-20.48,34.18s-20.48-15.3-20.48-34.18,9.18-34.18,20.48-34.18,20.48,15.3,20.48,34.18" transform="translate(-6.78 -10.82)" fill="#90bb74"/><path d="M705.82,511c0,25.84-11.61,46.78-25.94,46.78s-26-20.94-26-46.78,11.62-46.78,26-46.78S705.82,485.2,705.82,511" transform="translate(-6.78 -10.82)" fill="#90bb74"/><path d="M670.35,498.5c0,25.38-13.16,45.94-29.38,45.94S611.6,523.88,611.6,498.5s13.16-45.94,29.37-45.94,29.38,20.57,29.38,45.94" transform="translate(-6.78 -10.82)" fill="#90bb74"/><path d="M620.15,508.34c0,24.33-8.12,44.07-18.14,44.07s-18.13-19.74-18.13-44.07S592,464.26,602,464.26s18.14,19.73,18.14,44.08" transform="translate(-6.78 -10.82)" fill="#90bb74"/><path d="M461.26,511.26c0,24.34-8.12,44.08-18.14,44.08S425,535.6,425,511.26s8.12-44.08,18.13-44.08,18.14,19.74,18.14,44.08" transform="translate(-6.78 -10.82)" fill="#90bb74"/><path d="M503.59,506.79c0,25.58-9.07,46.33-20.26,46.33s-20.26-20.75-20.26-46.33,9.07-46.34,20.26-46.34,20.26,20.75,20.26,46.34" transform="translate(-6.78 -10.82)" fill="#90bb74"/><path d="M591,513.74c0,25.33-9.76,45.87-21.8,45.87s-21.8-20.54-21.8-45.87,9.76-45.86,21.8-45.86S591,488.42,591,513.74" transform="translate(-6.78 -10.82)" fill="#90bb74"/><path d="M606.19,532.76S692.44,473.39,774.76,502c58.23,19.71,46.94,51.88,46.94,51.88Z" transform="translate(-6.78 -10.82)" fill="#97bf7b"/><path d="M200.32,491.59c0,13.07-7.37,23.67-16.47,23.67s-16.48-10.6-16.48-23.67,7.38-23.68,16.48-23.68,16.47,10.59,16.47,23.68" transform="translate(-6.78 -10.82)" fill="#90bb72"/><path d="M211.82,490c0,14.93-3.32,27-7.4,27S197,504.92,197,490s3.32-27.05,7.41-27.05,7.4,12.11,7.4,27.05" transform="translate(-6.78 -10.82)" fill="#90bb72"/><path d="M239.56,491.59c0,13.06-7.87,23.67-17.57,23.67s-17.57-10.61-17.57-23.67,7.86-23.68,17.57-23.68,17.57,10.6,17.57,23.68" transform="translate(-6.78 -10.82)" fill="#90bb72"/><path d="M186.41,473.47c0,16.81-13.29,30.45-29.68,30.45s-29.66-13.64-29.66-30.45S140.35,443,156.73,443s29.68,13.64,29.68,30.47" transform="translate(-6.78 -10.82)" fill="#90bb72"/><path d="M181.23,485.59c0,14.18-10.29,25.67-23,25.67s-23-11.49-23-25.67,10.29-25.67,23-25.67,23,11.5,23,25.67" transform="translate(-6.78 -10.82)" fill="#90bb72"/><path d="M146.46,490.82c0,12.66-8.23,22.92-18.38,22.92s-18.38-10.26-18.38-22.92,8.23-22.91,18.38-22.91,18.38,10.25,18.38,22.91" transform="translate(-6.78 -10.82)" fill="#90bb72"/><path d="M782.45,520.42c0,12-4.94,21.69-11,21.69s-11-9.71-11-21.69,4.93-21.69,11-21.69,11,9.71,11,21.69" transform="translate(-6.78 -10.82)" fill="#7aad54"/><path d="M699.74,521.66c0,13.64-4.12,24.71-9.19,24.71s-9.18-11.07-9.18-24.71,4.11-24.7,9.18-24.7,9.19,11.06,9.19,24.7" transform="translate(-6.78 -10.82)" fill="#6ba443"/><path d="M679.68,526.66c0,13.64-4.11,24.7-9.18,24.7s-9.18-11.06-9.18-24.7S665.43,502,670.5,502s9.18,11.06,9.18,24.71" transform="translate(-6.78 -10.82)" fill="#6ba443"/><path d="M666.89,514.64c0,13.65-4.11,24.71-9.18,24.71s-9.18-11.06-9.18-24.71,4.11-24.7,9.18-24.7,9.18,11.06,9.18,24.7" transform="translate(-6.78 -10.82)" fill="#6ba443"/><path d="M712.35,520c0,11.05-1.69,20-3.77,20s-3.78-8.95-3.78-20,1.69-20,3.78-20,3.77,9,3.77,20" transform="translate(-6.78 -10.82)" fill="#6ba443"/><path d="M746.92,522.12c0,12-4.39,21.69-9.8,21.69s-9.8-9.71-9.8-21.69,4.39-21.69,9.8-21.69,9.8,9.72,9.8,21.69" transform="translate(-6.78 -10.82)" fill="#6ba443"/><path d="M184.87,515.26s193.18,1.31,300.84,6.18,301.26,27.38,336,28.8L161.2,559.39Z" transform="translate(-6.78 -10.82)" fill="#b8d3a6"/><path d="M259.69,526.1c0,5-4.51,9.06-10.07,9.06s-10.06-4.06-10.06-9.06,4.5-9.07,10.06-9.07,10.07,4.06,10.07,9.07" transform="translate(-6.78 -10.82)" fill="#70a849"/><path d="M275.47,522.82c0,6.81-4.88,12.34-10.88,12.34s-10.89-5.53-10.89-12.34,4.87-12.34,10.89-12.34,10.88,5.53,10.88,12.34" transform="translate(-6.78 -10.82)" fill="#70a849"/><path d="M303.21,522.07c0,11.12-6.21,20.14-13.87,20.14s-13.87-9-13.87-20.14,6.21-20.14,13.87-20.14,13.87,9,13.87,20.14" transform="translate(-6.78 -10.82)" fill="#70a849"/><path d="M339.66,524.38c0,15.76-10.22,28.54-22.85,28.54S294,540.14,294,524.38s10.23-28.54,22.85-28.54,22.85,12.78,22.85,28.54" transform="translate(-6.78 -10.82)" fill="#70a849"/><path d="M374.49,524.72c0,19.27-8.53,34.89-19,34.89S336.4,544,336.4,524.72s8.53-34.88,19.05-34.88,19,15.62,19,34.88" transform="translate(-6.78 -10.82)" fill="#70a849"/><path d="M408.76,529c0,16.91-10.35,30.6-23.12,30.6s-23.13-13.69-23.13-30.6,10.36-30.6,23.13-30.6,23.12,13.7,23.12,30.6" transform="translate(-6.78 -10.82)" fill="#70a849"/><path d="M442,533.35c0,19-8.89,34.45-19.85,34.45s-19.85-15.42-19.85-34.45,8.89-34.44,19.85-34.44S442,514.33,442,533.35" transform="translate(-6.78 -10.82)" fill="#70a849"/><path d="M431.88,518.67c0,10.19-6.59,18.46-14.72,18.46s-14.71-8.27-14.71-18.46,6.59-18.46,14.71-18.46,14.72,8.26,14.72,18.46" transform="translate(-6.78 -10.82)" fill="#70a849"/><path d="M495.53,535.13c0,14.12-10.11,25.56-22.58,25.56s-22.57-11.44-22.57-25.56,10.11-25.56,22.57-25.56,22.58,11.44,22.58,25.56" transform="translate(-6.78 -10.82)" fill="#70a849"/><path d="M518.12,541.26c0,11.93-7.31,21.6-16.32,21.6s-16.33-9.67-16.33-21.6,7.31-21.6,16.33-21.6,16.32,9.67,16.32,21.6" transform="translate(-6.78 -10.82)" fill="#70a849"/><path d="M491.46,524.26c0,12.07-7.65,21.86-17.07,21.86s-17.08-9.79-17.08-21.86,7.64-21.85,17.08-21.85,17.07,9.78,17.07,21.85" transform="translate(-6.78 -10.82)" fill="#70a849"/><path d="M514.71,522.76c0,9.38-5.86,17-13.08,17s-13.08-7.61-13.08-17,5.85-17,13.08-17,13.08,7.6,13.08,17" transform="translate(-6.78 -10.82)" fill="#70a849"/><path d="M600.6,514.1c0,12.18-4.62,22.06-10.33,22.06s-10.34-9.88-10.34-22.06S584.56,492,590.27,492s10.33,9.88,10.33,22.07" transform="translate(-6.78 -10.82)" fill="#70a849"/><path d="M542.68,524.57c0,7.18-4.85,13-10.84,13s-10.84-5.81-10.84-13,4.86-13,10.84-13,10.84,5.82,10.84,13" transform="translate(-6.78 -10.82)" fill="#70a849"/><path d="M565.21,524.22c0,7.88-6.67,14.27-14.9,14.27s-14.89-6.39-14.89-14.27S542.09,510,550.31,510s14.9,6.39,14.9,14.27" transform="translate(-6.78 -10.82)" fill="#70a849"/><path d="M587,526.08c0,7.06-5.44,12.78-12.17,12.78s-12.17-5.72-12.17-12.78,5.45-12.78,12.17-12.78S587,519,587,526.08" transform="translate(-6.78 -10.82)" fill="#70a849"/><path d="M722.67,550.27a10.77,10.77,0,1,1-10.76-10.54,10.66,10.66,0,0,1,10.76,10.54" transform="translate(-6.78 -10.82)" fill="#70a849"/><path d="M738.46,548.45c0,6.16-4.51,11.16-10.07,11.16s-10.07-5-10.07-11.16,4.51-11.15,10.07-11.15,10.07,5,10.07,11.15" transform="translate(-6.78 -10.82)" fill="#70a849"/><path d="M222,551.21s135.91-20.42,248.67-24.38,199-9.75,346.48,12Z" transform="translate(-6.78 -10.82)" fill="#8fba70"/><path d="M200.92,551.2S199,489,479.92,529.64c29.73-1.55,141-22.86,273.72-13.16,96.1,16.48,63.43,44.25,63.43,44.25Z" transform="translate(-6.78 -10.82)" fill="#85b566"/><path d="M138,569.36S-10.47,464.27,580.07,541.29Z" transform="translate(-6.78 -10.82)" fill="#abcc95"/><path d="M7.61,586.38C21.2,557,117.26,500.6,303.22,514.5c0,0-92-2.45-145.42,35C123.35,562.17,30.7,578.24,7.61,586.38Z" transform="translate(-6.78 -10.82)" fill="#86b668"/><path d="M537,559.82l9.75-25.7c-392.22-34.46-423.58,20.32-423.58,26.42C153.94,591.24,350.18,626.65,537,559.82Z" transform="translate(-6.78 -10.82)" fill="#86b668"/><path d="M7.32,597.84c20.29-66.91,829.09-110.26,816.22-36.46C797.58,631.18,404.76,544.22,7.32,597.84Z" transform="translate(-6.78 -10.82)" fill="#abcc95"/><path d="M323.61,591.17c85.11-42.42,322.53-54.28,486.32-54.9l-21.7,13.13S554,550.06,323.61,591.17Z" transform="translate(-6.78 -10.82)" fill="#86b668"/><path d="M248,636.83c8.54-56.57,595.21-150,592.74-88.22C828.36,608,533.27,564.32,248,636.83Z" transform="translate(-6.78 -10.82)" fill="#abcc95"/><path d="M318.7,650.37c93.88-78.13,354.66-92.61,534.5-88.16l-24,24.35S572.07,579.75,318.7,650.37Z" transform="translate(-6.78 -10.82)" fill="#86b668"/></g>

<g id="power-lines"><path d="M158.81,269.23c110,23,360.14,22.25,456.91-.05" transform="translate(-6.78 -10.82)" fill="none" stroke="gray" stroke-miterlimit="10" stroke-width="0.65"/><path d="M158.81,315.36c110,23.05,360.14,22.25,456.91-.05" transform="translate(-6.78 -10.82)" fill="none" stroke="gray" stroke-miterlimit="10" stroke-width="0.65"/><path d="M158.81,361.49c110,23.05,360.14,22.26,456.91-.05" transform="translate(-6.78 -10.82)" fill="none" stroke="gray" stroke-miterlimit="10" stroke-width="0.65"/><path d="M167.83,405.08c110.18,23.05,360.59,22.26,457.56,0" transform="translate(-6.78 -10.82)" fill="none" stroke="gray" stroke-miterlimit="10" stroke-width="0.65"/><rect x="661.49" y="394.48" width="1.16" height="8.67" fill="#3e3e3d"/><path d="M671.34,409.64c0,.73-1.11,1.31-2.48,1.31s-2.49-.58-2.49-1.31,1.11-1.31,2.49-1.31,2.48.59,2.48,1.31" transform="translate(-6.78 -10.82)" fill="#3e3e3d"/><path d="M671.34,407.53c0,.73-1.11,1.31-2.48,1.31s-2.49-.58-2.49-1.31,1.11-1.31,2.49-1.31,2.48.59,2.48,1.31" transform="translate(-6.78 -10.82)" fill="#3e3e3d"/><rect x="617.25" y="394.48" width="1.16" height="8.67" fill="#3e3e3d"/><path d="M627.1,409.64c0,.73-1.11,1.31-2.49,1.31s-2.48-.58-2.48-1.31,1.11-1.31,2.48-1.31,2.49.59,2.49,1.31" transform="translate(-6.78 -10.82)" fill="#3e3e3d"/><path d="M627.1,407.53c0,.73-1.11,1.31-2.49,1.31s-2.48-.58-2.48-1.31,1.11-1.31,2.48-1.31,2.49.59,2.49,1.31" transform="translate(-6.78 -10.82)" fill="#3e3e3d"/><rect x="636.01" y="214.77" width="8.14" height="325.23" fill="#472e24"/><path d="M678.07,269.14c-1.08,0-2,.27-2,.6H680c0-.33-.88-.6-2-.6" transform="translate(-6.78 -10.82)" fill="#3e3e3d"/><path d="M678.07,268c-.33,0-.61.5-.65,1.14h1.3c0-.64-.31-1.14-.65-1.14" transform="translate(-6.78 -10.82)" fill="#3e3e3d"/><path d="M678.07,267.3c-1.08,0-2,.27-2,.59H680c0-.32-.88-.59-2-.59" transform="translate(-6.78 -10.82)" fill="#3e3e3d"/><path d="M678.07,266.12c-.33,0-.61.5-.65,1.14h1.3c0-.64-.31-1.14-.65-1.14" transform="translate(-6.78 -10.82)" fill="#3e3e3d"/><path d="M678.07,265.46c-1.08,0-2,.26-2,.59H680c0-.33-.88-.59-2-.59" transform="translate(-6.78 -10.82)" fill="#3e3e3d"/><path d="M678.07,264.28c-.33,0-.61.5-.65,1.14h1.3c0-.64-.31-1.14-.65-1.14" transform="translate(-6.78 -10.82)" fill="#3e3e3d"/><path d="M678.07,263.61c-1.08,0-2,.27-2,.6H680c0-.33-.88-.6-2-.6" transform="translate(-6.78 -10.82)" fill="#3e3e3d"/><path d="M678.07,262.44c-.33,0-.61.5-.65,1.14h1.3c0-.64-.31-1.14-.65-1.14" transform="translate(-6.78 -10.82)" fill="#3e3e3d"/><path d="M678.07,261.77c-1.08,0-2,.26-2,.59H680c0-.33-.88-.59-2-.59" transform="translate(-6.78 -10.82)" fill="#3e3e3d"/><path d="M678.07,260.59c-.33,0-.61.5-.65,1.14h1.3c0-.64-.31-1.14-.65-1.14" transform="translate(-6.78 -10.82)" fill="#3e3e3d"/><path d="M678.07,259.93c-1.08,0-2,.26-2,.59H680c0-.33-.88-.59-2-.59" transform="translate(-6.78 -10.82)" fill="#3e3e3d"/><path d="M678.07,258.75c-.33,0-.61.5-.65,1.14h1.3c0-.64-.31-1.14-.65-1.14" transform="translate(-6.78 -10.82)" fill="#3e3e3d"/><path d="M678.07,258.08c-1.08,0-2,.27-2,.59H680c0-.32-.88-.59-2-.59" transform="translate(-6.78 -10.82)" fill="#3e3e3d"/><path d="M678.07,256.9c-.33,0-.61.5-.65,1.15h1.3c0-.65-.31-1.15-.65-1.15" transform="translate(-6.78 -10.82)" fill="#3e3e3d"/><path d="M615.32,268.76c-1.08,0-2,.26-2,.59h3.91c0-.33-.87-.59-1.95-.59" transform="translate(-6.78 -10.82)" fill="#3e3e3d"/><path d="M615.32,267.58c-.34,0-.61.5-.65,1.14H616c0-.64-.32-1.14-.65-1.14" transform="translate(-6.78 -10.82)" fill="#3e3e3d"/><path d="M615.32,266.92c-1.08,0-2,.26-2,.59h3.91c0-.33-.87-.59-1.95-.59" transform="translate(-6.78 -10.82)" fill="#3e3e3d"/><path d="M615.32,265.74c-.34,0-.61.5-.65,1.14H616c0-.64-.32-1.14-.65-1.14" transform="translate(-6.78 -10.82)" fill="#3e3e3d"/><path d="M615.32,265.07c-1.08,0-2,.27-2,.59h3.91c0-.32-.87-.59-1.95-.59" transform="translate(-6.78 -10.82)" fill="#3e3e3d"/><path d="M615.32,263.89c-.34,0-.61.5-.65,1.15H616c0-.65-.32-1.15-.65-1.15" transform="translate(-6.78 -10.82)" fill="#3e3e3d"/><path d="M615.32,263.23c-1.08,0-2,.26-2,.59h3.91c0-.33-.87-.59-1.95-.59" transform="translate(-6.78 -10.82)" fill="#3e3e3d"/><path d="M615.32,262.05c-.34,0-.61.5-.65,1.14H616c0-.64-.32-1.14-.65-1.14" transform="translate(-6.78 -10.82)" fill="#3e3e3d"/><path d="M615.32,261.38c-1.08,0-2,.27-2,.6h3.91c0-.33-.87-.6-1.95-.6" transform="translate(-6.78 -10.82)" fill="#3e3e3d"/><path d="M615.32,260.21c-.34,0-.61.5-.65,1.14H616c0-.64-.32-1.14-.65-1.14" transform="translate(-6.78 -10.82)" fill="#3e3e3d"/><path d="M615.32,259.54c-1.08,0-2,.27-2,.59h3.91c0-.32-.87-.59-1.95-.59" transform="translate(-6.78 -10.82)" fill="#3e3e3d"/><path d="M615.32,258.36c-.34,0-.61.5-.65,1.14H616c0-.64-.32-1.14-.65-1.14" transform="translate(-6.78 -10.82)" fill="#3e3e3d"/><path d="M615.32,257.7c-1.08,0-2,.26-2,.59h3.91c0-.33-.87-.59-1.95-.59" transform="translate(-6.78 -10.82)" fill="#3e3e3d"/><path d="M615.32,256.52c-.34,0-.61.5-.65,1.14H616c0-.64-.32-1.14-.65-1.14" transform="translate(-6.78 -10.82)" fill="#3e3e3d"/><rect x="606.74" y="241.3" width="66.67" height="4.64" fill="#472e24"/><path d="M678.07,315c-1.08,0-2,.27-2,.59H680c0-.32-.88-.59-2-.59" transform="translate(-6.78 -10.82)" fill="#3e3e3d"/><path d="M678.07,313.78c-.33,0-.61.5-.65,1.15h1.3c0-.65-.31-1.15-.65-1.15" transform="translate(-6.78 -10.82)" fill="#3e3e3d"/><path d="M678.07,313.12c-1.08,0-2,.26-2,.59H680c0-.33-.88-.59-2-.59" transform="translate(-6.78 -10.82)" fill="#3e3e3d"/><path d="M678.07,311.94c-.33,0-.61.5-.65,1.14h1.3c0-.64-.31-1.14-.65-1.14" transform="translate(-6.78 -10.82)" fill="#3e3e3d"/><path d="M678.07,311.27c-1.08,0-2,.27-2,.6H680c0-.33-.88-.6-2-.6" transform="translate(-6.78 -10.82)" fill="#3e3e3d"/><path d="M678.07,310.1c-.33,0-.61.5-.65,1.14h1.3c0-.64-.31-1.14-.65-1.14" transform="translate(-6.78 -10.82)" fill="#3e3e3d"/><path d="M678.07,309.43c-1.08,0-2,.26-2,.59H680c0-.33-.88-.59-2-.59" transform="translate(-6.78 -10.82)" fill="#3e3e3d"/><path d="M678.07,308.25c-.33,0-.61.5-.65,1.14h1.3c0-.64-.31-1.14-.65-1.14" transform="translate(-6.78 -10.82)" fill="#3e3e3d"/><path d="M678.07,307.59c-1.08,0-2,.26-2,.59H680c0-.33-.88-.59-2-.59" transform="translate(-6.78 -10.82)" fill="#3e3e3d"/><path d="M678.07,306.41c-.33,0-.61.5-.65,1.14h1.3c0-.64-.31-1.14-.65-1.14" transform="translate(-6.78 -10.82)" fill="#3e3e3d"/><path d="M678.07,305.74c-1.08,0-2,.27-2,.59H680c0-.32-.88-.59-2-.59" transform="translate(-6.78 -10.82)" fill="#3e3e3d"/><path d="M678.07,304.56c-.33,0-.61.51-.65,1.15h1.3c0-.64-.31-1.15-.65-1.15" transform="translate(-6.78 -10.82)" fill="#3e3e3d"/><path d="M678.07,303.9c-1.08,0-2,.26-2,.59H680c0-.33-.88-.59-2-.59" transform="translate(-6.78 -10.82)" fill="#3e3e3d"/><path d="M678.07,302.72c-.33,0-.61.5-.65,1.14h1.3c0-.64-.31-1.14-.65-1.14" transform="translate(-6.78 -10.82)" fill="#3e3e3d"/><path d="M615.32,314.58c-1.08,0-2,.26-2,.59h3.91c0-.33-.87-.59-1.95-.59" transform="translate(-6.78 -10.82)" fill="#3e3e3d"/><path d="M615.32,313.4c-.34,0-.61.5-.65,1.14H616c0-.64-.32-1.14-.65-1.14" transform="translate(-6.78 -10.82)" fill="#3e3e3d"/><path d="M615.32,312.73c-1.08,0-2,.27-2,.59h3.91c0-.32-.87-.59-1.95-.59" transform="translate(-6.78 -10.82)" fill="#3e3e3d"/><path d="M615.32,311.55c-.34,0-.61.51-.65,1.15H616c0-.64-.32-1.15-.65-1.15" transform="translate(-6.78 -10.82)" fill="#3e3e3d"/><path d="M615.32,310.89c-1.08,0-2,.26-2,.59h3.91c0-.33-.87-.59-1.95-.59" transform="translate(-6.78 -10.82)" fill="#3e3e3d"/><path d="M615.32,309.71c-.34,0-.61.5-.65,1.14H616c0-.64-.32-1.14-.65-1.14" transform="translate(-6.78 -10.82)" fill="#3e3e3d"/><path d="M615.32,309c-1.08,0-2,.27-2,.6h3.91c0-.33-.87-.6-1.95-.6" transform="translate(-6.78 -10.82)" fill="#3e3e3d"/><path d="M615.32,307.87c-.34,0-.61.5-.65,1.14H616c0-.64-.32-1.14-.65-1.14" transform="translate(-6.78 -10.82)" fill="#3e3e3d"/><path d="M615.32,307.2c-1.08,0-2,.27-2,.59h3.91c0-.32-.87-.59-1.95-.59" transform="translate(-6.78 -10.82)" fill="#3e3e3d"/><path d="M615.32,306c-.34,0-.61.5-.65,1.15H616c0-.65-.32-1.15-.65-1.15" transform="translate(-6.78 -10.82)" fill="#3e3e3d"/><path d="M615.32,305.36c-1.08,0-2,.26-2,.59h3.91c0-.33-.87-.59-1.95-.59" transform="translate(-6.78 -10.82)" fill="#3e3e3d"/><path d="M615.32,304.18c-.34,0-.61.5-.65,1.14H616c0-.64-.32-1.14-.65-1.14" transform="translate(-6.78 -10.82)" fill="#3e3e3d"/><path d="M615.32,303.51c-1.08,0-2,.27-2,.6h3.91c0-.33-.87-.6-1.95-.6" transform="translate(-6.78 -10.82)" fill="#3e3e3d"/><path d="M615.32,302.34c-.34,0-.61.5-.65,1.14H616c0-.64-.32-1.14-.65-1.14" transform="translate(-6.78 -10.82)" fill="#3e3e3d"/><rect x="606.74" y="287.12" width="66.67" height="4.64" fill="#472e24"/><path d="M678.07,360.78c-1.08,0-2,.26-2,.59H680c0-.33-.88-.59-2-.59" transform="translate(-6.78 -10.82)" fill="#3e3e3d"/><path d="M678.07,359.6c-.33,0-.61.5-.65,1.14h1.3c0-.64-.31-1.14-.65-1.14" transform="translate(-6.78 -10.82)" fill="#3e3e3d"/><path d="M678.07,358.93c-1.08,0-2,.27-2,.6H680c0-.33-.88-.6-2-.6" transform="translate(-6.78 -10.82)" fill="#3e3e3d"/><path d="M678.07,357.76c-.33,0-.61.5-.65,1.14h1.3c0-.64-.31-1.14-.65-1.14" transform="translate(-6.78 -10.82)" fill="#3e3e3d"/><path d="M678.07,357.09c-1.08,0-2,.26-2,.59H680c0-.33-.88-.59-2-.59" transform="translate(-6.78 -10.82)" fill="#3e3e3d"/><path d="M678.07,355.91c-.33,0-.61.5-.65,1.14h1.3c0-.64-.31-1.14-.65-1.14" transform="translate(-6.78 -10.82)" fill="#3e3e3d"/><path d="M678.07,355.25c-1.08,0-2,.26-2,.59H680c0-.33-.88-.59-2-.59" transform="translate(-6.78 -10.82)" fill="#3e3e3d"/><path d="M678.07,354.07c-.33,0-.61.5-.65,1.14h1.3c0-.64-.31-1.14-.65-1.14" transform="translate(-6.78 -10.82)" fill="#3e3e3d"/><path d="M678.07,353.4c-1.08,0-2,.27-2,.6H680c0-.33-.88-.6-2-.6" transform="translate(-6.78 -10.82)" fill="#3e3e3d"/><path d="M678.07,352.23c-.33,0-.61.49-.65,1.14h1.3c0-.65-.31-1.14-.65-1.14" transform="translate(-6.78 -10.82)" fill="#3e3e3d"/><path d="M678.07,351.56c-1.08,0-2,.26-2,.59H680c0-.33-.88-.59-2-.59" transform="translate(-6.78 -10.82)" fill="#3e3e3d"/><path d="M678.07,350.38c-.33,0-.61.5-.65,1.14h1.3c0-.64-.31-1.14-.65-1.14" transform="translate(-6.78 -10.82)" fill="#3e3e3d"/><path d="M678.07,349.72c-1.08,0-2,.26-2,.59H680c0-.33-.88-.59-2-.59" transform="translate(-6.78 -10.82)" fill="#3e3e3d"/><path d="M678.07,348.54c-.33,0-.61.5-.65,1.14h1.3c0-.64-.31-1.14-.65-1.14" transform="translate(-6.78 -10.82)" fill="#3e3e3d"/><path d="M615.32,360.39c-1.08,0-2,.27-2,.6h3.91c0-.33-.87-.6-1.95-.6" transform="translate(-6.78 -10.82)" fill="#3e3e3d"/><path d="M615.32,359.22c-.34,0-.61.5-.65,1.14H616c0-.64-.32-1.14-.65-1.14" transform="translate(-6.78 -10.82)" fill="#3e3e3d"/><path d="M615.32,358.55c-1.08,0-2,.26-2,.59h3.91c0-.33-.87-.59-1.95-.59" transform="translate(-6.78 -10.82)" fill="#3e3e3d"/><path d="M615.32,357.37c-.34,0-.61.5-.65,1.14H616c0-.64-.32-1.14-.65-1.14" transform="translate(-6.78 -10.82)" fill="#3e3e3d"/><path d="M615.32,356.71c-1.08,0-2,.26-2,.59h3.91c0-.33-.87-.59-1.95-.59" transform="translate(-6.78 -10.82)" fill="#3e3e3d"/><path d="M615.32,355.53c-.34,0-.61.5-.65,1.14H616c0-.64-.32-1.14-.65-1.14" transform="translate(-6.78 -10.82)" fill="#3e3e3d"/><path d="M615.32,354.86c-1.08,0-2,.27-2,.59h3.91c0-.32-.87-.59-1.95-.59" transform="translate(-6.78 -10.82)" fill="#3e3e3d"/><path d="M615.32,353.68c-.34,0-.61.5-.65,1.15H616c0-.65-.32-1.15-.65-1.15" transform="translate(-6.78 -10.82)" fill="#3e3e3d"/><path d="M615.32,353c-1.08,0-2,.26-2,.59h3.91c0-.33-.87-.59-1.95-.59" transform="translate(-6.78 -10.82)" fill="#3e3e3d"/><path d="M615.32,351.84c-.34,0-.61.5-.65,1.14H616c0-.64-.32-1.14-.65-1.14" transform="translate(-6.78 -10.82)" fill="#3e3e3d"/><path d="M615.32,351.17c-1.08,0-2,.27-2,.6h3.91c0-.33-.87-.6-1.95-.6" transform="translate(-6.78 -10.82)" fill="#3e3e3d"/><path d="M615.32,350c-.34,0-.61.5-.65,1.14H616c0-.64-.32-1.14-.65-1.14" transform="translate(-6.78 -10.82)" fill="#3e3e3d"/><path d="M615.32,349.33c-1.08,0-2,.26-2,.59h3.91c0-.33-.87-.59-1.95-.59" transform="translate(-6.78 -10.82)" fill="#3e3e3d"/><path d="M615.32,348.15c-.34,0-.61.5-.65,1.14H616c0-.64-.32-1.14-.65-1.14" transform="translate(-6.78 -10.82)" fill="#3e3e3d"/><rect x="606.74" y="332.93" width="66.67" height="4.64" fill="#472e24"/><rect x="615.6" y="401.85" width="48.96" height="4.64" fill="#472e24"/><rect x="205.64" y="394.48" width="1.16" height="8.67" fill="#3e3e3d"/><path d="M215.49,409.64c0,.73-1.12,1.31-2.49,1.31s-2.49-.58-2.49-1.31,1.12-1.31,2.49-1.31,2.49.59,2.49,1.31" transform="translate(-6.78 -10.82)" fill="#3e3e3d"/><path d="M215.49,407.53c0,.73-1.12,1.31-2.49,1.31s-2.49-.58-2.49-1.31,1.12-1.31,2.49-1.31,2.49.59,2.49,1.31" transform="translate(-6.78 -10.82)" fill="#3e3e3d"/><rect x="161.39" y="394.48" width="1.16" height="8.67" fill="#3e3e3d"/><path d="M171.24,409.64c0,.73-1.11,1.31-2.48,1.31s-2.49-.58-2.49-1.31,1.11-1.31,2.49-1.31,2.48.59,2.48,1.31" transform="translate(-6.78 -10.82)" fill="#3e3e3d"/><path d="M171.24,407.53c0,.73-1.11,1.31-2.48,1.31s-2.49-.58-2.49-1.31,1.11-1.31,2.49-1.31,2.48.59,2.48,1.31" transform="translate(-6.78 -10.82)" fill="#3e3e3d"/><rect x="180.15" y="214.77" width="8.14" height="325.23" fill="#472e24"/><path d="M222.22,269.14c-1.08,0-2,.27-2,.6h3.91c0-.33-.87-.6-1.95-.6" transform="translate(-6.78 -10.82)" fill="#3e3e3d"/><path d="M222.22,268c-.34,0-.61.5-.65,1.14h1.3c0-.64-.32-1.14-.65-1.14" transform="translate(-6.78 -10.82)" fill="#3e3e3d"/><path d="M222.22,267.3c-1.08,0-2,.27-2,.59h3.91c0-.32-.87-.59-1.95-.59" transform="translate(-6.78 -10.82)" fill="#3e3e3d"/><path d="M222.22,266.12c-.34,0-.61.5-.65,1.14h1.3c0-.64-.32-1.14-.65-1.14" transform="translate(-6.78 -10.82)" fill="#3e3e3d"/><path d="M222.22,265.46c-1.08,0-2,.26-2,.59h3.91c0-.33-.87-.59-1.95-.59" transform="translate(-6.78 -10.82)" fill="#3e3e3d"/><path d="M222.22,264.28c-.34,0-.61.5-.65,1.14h1.3c0-.64-.32-1.14-.65-1.14" transform="translate(-6.78 -10.82)" fill="#3e3e3d"/><path d="M222.22,263.61c-1.08,0-2,.27-2,.6h3.91c0-.33-.87-.6-1.95-.6" transform="translate(-6.78 -10.82)" fill="#3e3e3d"/><path d="M222.22,262.44c-.34,0-.61.5-.65,1.14h1.3c0-.64-.32-1.14-.65-1.14" transform="translate(-6.78 -10.82)" fill="#3e3e3d"/><path d="M222.22,261.77c-1.08,0-2,.26-2,.59h3.91c0-.33-.87-.59-1.95-.59" transform="translate(-6.78 -10.82)" fill="#3e3e3d"/><path d="M222.22,260.59c-.34,0-.61.5-.65,1.14h1.3c0-.64-.32-1.14-.65-1.14" transform="translate(-6.78 -10.82)" fill="#3e3e3d"/><path d="M222.22,259.93c-1.08,0-2,.26-2,.59h3.91c0-.33-.87-.59-1.95-.59" transform="translate(-6.78 -10.82)" fill="#3e3e3d"/><path d="M222.22,258.75c-.34,0-.61.5-.65,1.14h1.3c0-.64-.32-1.14-.65-1.14" transform="translate(-6.78 -10.82)" fill="#3e3e3d"/><path d="M222.22,258.08c-1.08,0-2,.27-2,.59h3.91c0-.32-.87-.59-1.95-.59" transform="translate(-6.78 -10.82)" fill="#3e3e3d"/><path d="M222.22,256.9c-.34,0-.61.5-.65,1.15h1.3c0-.65-.32-1.15-.65-1.15" transform="translate(-6.78 -10.82)" fill="#3e3e3d"/><path d="M159.46,268.76c-1.08,0-2,.26-2,.59h3.9c0-.33-.87-.59-1.95-.59" transform="translate(-6.78 -10.82)" fill="#3e3e3d"/><path d="M159.46,267.58c-.34,0-.61.5-.65,1.14h1.3c0-.64-.31-1.14-.65-1.14" transform="translate(-6.78 -10.82)" fill="#3e3e3d"/><path d="M159.46,266.92c-1.08,0-2,.26-2,.59h3.9c0-.33-.87-.59-1.95-.59" transform="translate(-6.78 -10.82)" fill="#3e3e3d"/><path d="M159.46,265.74c-.34,0-.61.5-.65,1.14h1.3c0-.64-.31-1.14-.65-1.14" transform="translate(-6.78 -10.82)" fill="#3e3e3d"/><path d="M159.46,265.07c-1.08,0-2,.27-2,.59h3.9c0-.32-.87-.59-1.95-.59" transform="translate(-6.78 -10.82)" fill="#3e3e3d"/><path d="M159.46,263.89c-.34,0-.61.5-.65,1.15h1.3c0-.65-.31-1.15-.65-1.15" transform="translate(-6.78 -10.82)" fill="#3e3e3d"/><path d="M159.46,263.23c-1.08,0-2,.26-2,.59h3.9c0-.33-.87-.59-1.95-.59" transform="translate(-6.78 -10.82)" fill="#3e3e3d"/><path d="M159.46,262.05c-.34,0-.61.5-.65,1.14h1.3c0-.64-.31-1.14-.65-1.14" transform="translate(-6.78 -10.82)" fill="#3e3e3d"/><path d="M159.46,261.38c-1.08,0-2,.27-2,.6h3.9c0-.33-.87-.6-1.95-.6" transform="translate(-6.78 -10.82)" fill="#3e3e3d"/><path d="M159.46,260.21c-.34,0-.61.5-.65,1.14h1.3c0-.64-.31-1.14-.65-1.14" transform="translate(-6.78 -10.82)" fill="#3e3e3d"/><path d="M159.46,259.54c-1.08,0-2,.27-2,.59h3.9c0-.32-.87-.59-1.95-.59" transform="translate(-6.78 -10.82)" fill="#3e3e3d"/><path d="M159.46,258.36c-.34,0-.61.5-.65,1.14h1.3c0-.64-.31-1.14-.65-1.14" transform="translate(-6.78 -10.82)" fill="#3e3e3d"/><path d="M159.46,257.7c-1.08,0-2,.26-2,.59h3.9c0-.33-.87-.59-1.95-.59" transform="translate(-6.78 -10.82)" fill="#3e3e3d"/><path d="M159.46,256.52c-.34,0-.61.5-.65,1.14h1.3c0-.64-.31-1.14-.65-1.14" transform="translate(-6.78 -10.82)" fill="#3e3e3d"/><rect x="150.89" y="241.3" width="66.67" height="4.64" fill="#472e24"/><path d="M222.22,315c-1.08,0-2,.27-2,.59h3.91c0-.32-.87-.59-1.95-.59" transform="translate(-6.78 -10.82)" fill="#3e3e3d"/><path d="M222.22,313.78c-.34,0-.61.5-.65,1.15h1.3c0-.65-.32-1.15-.65-1.15" transform="translate(-6.78 -10.82)" fill="#3e3e3d"/><path d="M222.22,313.12c-1.08,0-2,.26-2,.59h3.91c0-.33-.87-.59-1.95-.59" transform="translate(-6.78 -10.82)" fill="#3e3e3d"/><path d="M222.22,311.94c-.34,0-.61.5-.65,1.14h1.3c0-.64-.32-1.14-.65-1.14" transform="translate(-6.78 -10.82)" fill="#3e3e3d"/><path d="M222.22,311.27c-1.08,0-2,.27-2,.6h3.91c0-.33-.87-.6-1.95-.6" transform="translate(-6.78 -10.82)" fill="#3e3e3d"/><path d="M222.22,310.1c-.34,0-.61.5-.65,1.14h1.3c0-.64-.32-1.14-.65-1.14" transform="translate(-6.78 -10.82)" fill="#3e3e3d"/><path d="M222.22,309.43c-1.08,0-2,.26-2,.59h3.91c0-.33-.87-.59-1.95-.59" transform="translate(-6.78 -10.82)" fill="#3e3e3d"/><path d="M222.22,308.25c-.34,0-.61.5-.65,1.14h1.3c0-.64-.32-1.14-.65-1.14" transform="translate(-6.78 -10.82)" fill="#3e3e3d"/><path d="M222.22,307.59c-1.08,0-2,.26-2,.59h3.91c0-.33-.87-.59-1.95-.59" transform="translate(-6.78 -10.82)" fill="#3e3e3d"/><path d="M222.22,306.41c-.34,0-.61.5-.65,1.14h1.3c0-.64-.32-1.14-.65-1.14" transform="translate(-6.78 -10.82)" fill="#3e3e3d"/><path d="M222.22,305.74c-1.08,0-2,.27-2,.59h3.91c0-.32-.87-.59-1.95-.59" transform="translate(-6.78 -10.82)" fill="#3e3e3d"/><path d="M222.22,304.56c-.34,0-.61.51-.65,1.15h1.3c0-.64-.32-1.15-.65-1.15" transform="translate(-6.78 -10.82)" fill="#3e3e3d"/><path d="M222.22,303.9c-1.08,0-2,.26-2,.59h3.91c0-.33-.87-.59-1.95-.59" transform="translate(-6.78 -10.82)" fill="#3e3e3d"/><path d="M222.22,302.72c-.34,0-.61.5-.65,1.14h1.3c0-.64-.32-1.14-.65-1.14" transform="translate(-6.78 -10.82)" fill="#3e3e3d"/><path d="M159.46,314.58c-1.08,0-2,.26-2,.59h3.9c0-.33-.87-.59-1.95-.59" transform="translate(-6.78 -10.82)" fill="#3e3e3d"/><path d="M159.46,313.4c-.34,0-.61.5-.65,1.14h1.3c0-.64-.31-1.14-.65-1.14" transform="translate(-6.78 -10.82)" fill="#3e3e3d"/><path d="M159.46,312.73c-1.08,0-2,.27-2,.59h3.9c0-.32-.87-.59-1.95-.59" transform="translate(-6.78 -10.82)" fill="#3e3e3d"/><path d="M159.46,311.55c-.34,0-.61.51-.65,1.15h1.3c0-.64-.31-1.15-.65-1.15" transform="translate(-6.78 -10.82)" fill="#3e3e3d"/><path d="M159.46,310.89c-1.08,0-2,.26-2,.59h3.9c0-.33-.87-.59-1.95-.59" transform="translate(-6.78 -10.82)" fill="#3e3e3d"/><path d="M159.46,309.71c-.34,0-.61.5-.65,1.14h1.3c0-.64-.31-1.14-.65-1.14" transform="translate(-6.78 -10.82)" fill="#3e3e3d"/><path d="M159.46,309c-1.08,0-2,.27-2,.6h3.9c0-.33-.87-.6-1.95-.6" transform="translate(-6.78 -10.82)" fill="#3e3e3d"/><path d="M159.46,307.87c-.34,0-.61.5-.65,1.14h1.3c0-.64-.31-1.14-.65-1.14" transform="translate(-6.78 -10.82)" fill="#3e3e3d"/><path d="M159.46,307.2c-1.08,0-2,.27-2,.59h3.9c0-.32-.87-.59-1.95-.59" transform="translate(-6.78 -10.82)" fill="#3e3e3d"/><path d="M159.46,306c-.34,0-.61.5-.65,1.15h1.3c0-.65-.31-1.15-.65-1.15" transform="translate(-6.78 -10.82)" fill="#3e3e3d"/><path d="M159.46,305.36c-1.08,0-2,.26-2,.59h3.9c0-.33-.87-.59-1.95-.59" transform="translate(-6.78 -10.82)" fill="#3e3e3d"/><path d="M159.46,304.18c-.34,0-.61.5-.65,1.14h1.3c0-.64-.31-1.14-.65-1.14" transform="translate(-6.78 -10.82)" fill="#3e3e3d"/><path d="M159.46,303.51c-1.08,0-2,.27-2,.6h3.9c0-.33-.87-.6-1.95-.6" transform="translate(-6.78 -10.82)" fill="#3e3e3d"/><path d="M159.46,302.34c-.34,0-.61.5-.65,1.14h1.3c0-.64-.31-1.14-.65-1.14" transform="translate(-6.78 -10.82)" fill="#3e3e3d"/><rect x="150.89" y="287.12" width="66.67" height="4.64" fill="#472e24"/><path d="M222.22,360.78c-1.08,0-2,.26-2,.59h3.91c0-.33-.87-.59-1.95-.59" transform="translate(-6.78 -10.82)" fill="#3e3e3d"/><path d="M222.22,359.6c-.34,0-.61.5-.65,1.14h1.3c0-.64-.32-1.14-.65-1.14" transform="translate(-6.78 -10.82)" fill="#3e3e3d"/><path d="M222.22,358.93c-1.08,0-2,.27-2,.6h3.91c0-.33-.87-.6-1.95-.6" transform="translate(-6.78 -10.82)" fill="#3e3e3d"/><path d="M222.22,357.76c-.34,0-.61.5-.65,1.14h1.3c0-.64-.32-1.14-.65-1.14" transform="translate(-6.78 -10.82)" fill="#3e3e3d"/><path d="M222.22,357.09c-1.08,0-2,.26-2,.59h3.91c0-.33-.87-.59-1.95-.59" transform="translate(-6.78 -10.82)" fill="#3e3e3d"/><path d="M222.22,355.91c-.34,0-.61.5-.65,1.14h1.3c0-.64-.32-1.14-.65-1.14" transform="translate(-6.78 -10.82)" fill="#3e3e3d"/><path d="M222.22,355.25c-1.08,0-2,.26-2,.59h3.91c0-.33-.87-.59-1.95-.59" transform="translate(-6.78 -10.82)" fill="#3e3e3d"/><path d="M222.22,354.07c-.34,0-.61.5-.65,1.14h1.3c0-.64-.32-1.14-.65-1.14" transform="translate(-6.78 -10.82)" fill="#3e3e3d"/><path d="M222.22,353.4c-1.08,0-2,.27-2,.6h3.91c0-.33-.87-.6-1.95-.6" transform="translate(-6.78 -10.82)" fill="#3e3e3d"/><path d="M222.22,352.23c-.34,0-.61.49-.65,1.14h1.3c0-.65-.32-1.14-.65-1.14" transform="translate(-6.78 -10.82)" fill="#3e3e3d"/><path d="M222.22,351.56c-1.08,0-2,.26-2,.59h3.91c0-.33-.87-.59-1.95-.59" transform="translate(-6.78 -10.82)" fill="#3e3e3d"/><path d="M222.22,350.38c-.34,0-.61.5-.65,1.14h1.3c0-.64-.32-1.14-.65-1.14" transform="translate(-6.78 -10.82)" fill="#3e3e3d"/><path d="M222.22,349.72c-1.08,0-2,.26-2,.59h3.91c0-.33-.87-.59-1.95-.59" transform="translate(-6.78 -10.82)" fill="#3e3e3d"/><path d="M222.22,348.54c-.34,0-.61.5-.65,1.14h1.3c0-.64-.32-1.14-.65-1.14" transform="translate(-6.78 -10.82)" fill="#3e3e3d"/><path d="M159.46,360.39c-1.08,0-2,.27-2,.6h3.9c0-.33-.87-.6-1.95-.6" transform="translate(-6.78 -10.82)" fill="#3e3e3d"/><path d="M159.46,359.22c-.34,0-.61.5-.65,1.14h1.3c0-.64-.31-1.14-.65-1.14" transform="translate(-6.78 -10.82)" fill="#3e3e3d"/><path d="M159.46,358.55c-1.08,0-2,.26-2,.59h3.9c0-.33-.87-.59-1.95-.59" transform="translate(-6.78 -10.82)" fill="#3e3e3d"/><path d="M159.46,357.37c-.34,0-.61.5-.65,1.14h1.3c0-.64-.31-1.14-.65-1.14" transform="translate(-6.78 -10.82)" fill="#3e3e3d"/><path d="M159.46,356.71c-1.08,0-2,.26-2,.59h3.9c0-.33-.87-.59-1.95-.59" transform="translate(-6.78 -10.82)" fill="#3e3e3d"/><path d="M159.46,355.53c-.34,0-.61.5-.65,1.14h1.3c0-.64-.31-1.14-.65-1.14" transform="translate(-6.78 -10.82)" fill="#3e3e3d"/><path d="M159.46,354.86c-1.08,0-2,.27-2,.59h3.9c0-.32-.87-.59-1.95-.59" transform="translate(-6.78 -10.82)" fill="#3e3e3d"/><path d="M159.46,353.68c-.34,0-.61.5-.65,1.15h1.3c0-.65-.31-1.15-.65-1.15" transform="translate(-6.78 -10.82)" fill="#3e3e3d"/><path d="M159.46,353c-1.08,0-2,.26-2,.59h3.9c0-.33-.87-.59-1.95-.59" transform="translate(-6.78 -10.82)" fill="#3e3e3d"/><path d="M159.46,351.84c-.34,0-.61.5-.65,1.14h1.3c0-.64-.31-1.14-.65-1.14" transform="translate(-6.78 -10.82)" fill="#3e3e3d"/><path d="M159.46,351.17c-1.08,0-2,.27-2,.6h3.9c0-.33-.87-.6-1.95-.6" transform="translate(-6.78 -10.82)" fill="#3e3e3d"/><path d="M159.46,350c-.34,0-.61.5-.65,1.14h1.3c0-.64-.31-1.14-.65-1.14" transform="translate(-6.78 -10.82)" fill="#3e3e3d"/><path d="M159.46,349.33c-1.08,0-2,.26-2,.59h3.9c0-.33-.87-.59-1.95-.59" transform="translate(-6.78 -10.82)" fill="#3e3e3d"/><path d="M159.46,348.15c-.34,0-.61.5-.65,1.14h1.3c0-.64-.31-1.14-.65-1.14" transform="translate(-6.78 -10.82)" fill="#3e3e3d"/><rect x="150.89" y="332.93" width="66.67" height="4.64" fill="#472e24"/><rect x="159.74" y="401.85" width="48.96" height="4.64" fill="#472e24"/><path d="M221.3,269.23c110,23,360.15,22.25,456.91-.05" transform="translate(-6.78 -10.82)" fill="none" stroke="gray" stroke-miterlimit="10" stroke-width="0.65"/><path d="M221.3,315.36c110,23.05,360.15,22.25,456.91-.05" transform="translate(-6.78 -10.82)" fill="none" stroke="gray" stroke-miterlimit="10" stroke-width="0.65"/><path d="M221.3,361.49c110,23.05,360.15,22.26,456.91-.05" transform="translate(-6.78 -10.82)" fill="none" stroke="gray" stroke-miterlimit="10" stroke-width="0.65"/><path d="M212.45,405.08C322.63,428.13,573,427.34,670,405" transform="translate(-6.78 -10.82)" fill="none" stroke="gray" stroke-miterlimit="10" stroke-width="0.65"/></g>

<g id="icon-1"><path d="M277.5,429.33a20,20,0,1,1-24-15,20,20,0,0,1,24,15" transform="translate(-6.78 -10.82)" fill="#6ba443" fill-rule="evenodd"/><path d="M259.65,437.63c-.31-4.3-.63-8.48-.93-12.67a2.59,2.59,0,0,0-1.78-2.53,3.16,3.16,0,0,0-3.25.8,2.4,2.4,0,0,0-.51,2.92c.91,2.25,1.82,4.5,2.71,6.75.69,1.71,1.35,3.42,2,5.13Zm-2.52,5.12a2.61,2.61,0,0,0,3.1,2.26,2.85,2.85,0,0,0,2-3.44,2.71,2.71,0,0,0-3.23-2.28c-1.47.31-2.25,1.75-1.88,3.46" transform="translate(-6.78 -10.82)" fill="#fff"/></g><g id="icon-2"><path d="M383.14,416a30.6,30.6,0,1,1-39.59-17.47A30.6,30.6,0,0,1,383.14,416" transform="translate(-6.78 -10.82)" fill="#6ba443" fill-rule="evenodd"/><path d="M355.13,411.62c-1.41,3.18-2.82,6.1-4,9.1a4.43,4.43,0,0,1-3,2.85c-2.25.74-4.44,1.69-6.66,2.55l-1,.39c.12.36.19.65.3.93q2.84,7.33,5.69,14.69c.56,1.44,1.11,1.68,2.55,1.13l19.09-7.4c1.47-.58,1.72-1.14,1.13-2.64-1.6-4.15-3.2-8.3-4.83-12.43a1.93,1.93,0,0,1,.06-1.75c.42-.82.74-1.69,1.17-2.7a7.18,7.18,0,0,1,.39.71c2,5.18,4,10.36,6,15.55a4.25,4.25,0,0,1-2.57,5.79q-9.89,3.86-19.78,7.67a4.24,4.24,0,0,1-5.78-2.59q-3.83-9.84-7.63-19.7a4.26,4.26,0,0,1,2.58-5.86q7.77-3,15.55-6l.78-.26" transform="translate(-6.78 -10.82)" fill="#fff"/><path d="M353.68,429.07c-.29-1.67-.56-3.15-.81-4.64a1.51,1.51,0,0,1,.1-.79q2.68-6.15,5.41-12.28a2.7,2.7,0,0,1,.19-.33l5.36,2.36c-.67,1.38-1.4,2.83-2.07,4.31-1.21,2.67-2.37,5.36-3.59,8a2.34,2.34,0,0,1-.81.93c-1.21.82-2.45,1.57-3.78,2.41" transform="translate(-6.78 -10.82)" fill="#fff"/><path d="M350.57,429l-4.89,1.89a.92.92,0,1,1-.67-1.72l4.89-1.9a.92.92,0,0,1,1.2.53.93.93,0,0,1-.53,1.2" transform="translate(-6.78 -10.82)" fill="#fff"/><path d="M363.79,428.81l-16.46,6.38a.92.92,0,1,1-.67-1.72l16.46-6.39a.94.94,0,0,1,1.2.53.92.92,0,0,1-.53,1.2" transform="translate(-6.78 -10.82)" fill="#fff"/><path d="M365.44,433.07,349,439.45a.92.92,0,0,1-1.2-.53.93.93,0,0,1,.53-1.2l16.46-6.38a.94.94,0,0,1,1.2.53.92.92,0,0,1-.53,1.2" transform="translate(-6.78 -10.82)" fill="#fff"/><path d="M365.13,410.48l-5.36-2.33c.46-1,.86-2,1.39-3a2.84,2.84,0,0,1,3.57-1.06,2.9,2.9,0,0,1,1.56,3.46,4.55,4.55,0,0,1-.21.51c-.31.8-.63,1.6-.95,2.41" transform="translate(-6.78 -10.82)" fill="#fff"/></g><g id="icon-3"><path d="M555.73,433.4a22.18,22.18,0,1,1-24.19-20,22.19,22.19,0,0,1,24.19,20" transform="translate(-6.78 -10.82)" fill="#174a97" fill-rule="evenodd"/><path d="M534.3,444.16c-2.25-2.83-4.44-5.62-6.67-8.38a7.56,7.56,0,0,1-1.79-4.75,7.22,7.22,0,0,1,6.13-7.14,7.23,7.23,0,0,1,7.32,10.74c-1.59,3-3.16,6-4.74,9.05l-.25.48m-.87-9.41a3.76,3.76,0,1,0-4.12-3.42,3.75,3.75,0,0,0,4.12,3.42" transform="translate(-6.78 -10.82)" fill="#fff"/><path d="M532.09,443.06c-2,.68-2.42.92-2.9,1.49,1.43.94,8.82.26,10.25-1a6.79,6.79,0,0,0-3-.89c.16-.82.27-1,1.07-.9a9.45,9.45,0,0,1,2.18.35c1.57.51,1.83,1.94.57,3a9.31,9.31,0,0,1-4.84,1.95,12.72,12.72,0,0,1-5.91-.39,4.63,4.63,0,0,1-1.43-.78,1.46,1.46,0,0,1,0-2.4,5.72,5.72,0,0,1,3-1.18c.26,0,.59.42,1,.73" transform="translate(-6.78 -10.82)" fill="#fff"/></g><g id="icon-4"><path d="M565.68,362.79a26.91,26.91,0,1,1-26.91-26.9,26.91,26.91,0,0,1,26.91,26.9" transform="translate(-6.78 -10.82)" fill="#f27c26" fill-rule="evenodd"/><path d="M543.7,360h-9.87a.9.9,0,0,0-.9.9v12.68a4,4,0,0,0,4,3.95h3.78a4,4,0,0,0,4-3.95V360.89a.9.9,0,0,0-.91-.9m-2.87,9.7h-4.12v-1.87h4.12Zm0-4h-4.12v-1.86h4.12Z" transform="translate(-6.78 -10.82)" fill="#fff"/><path d="M532.93,356.86l-2-2s3.46-3.39,7.81-3.17a11.13,11.13,0,0,1,7.73,3.21l-1.89,2s-5.63-5.6-11.68,0" transform="translate(-6.78 -10.82)" fill="#fff"/><path d="M529,352.91l-2-2s5.15-5,11.72-4.69,9.16,2.52,11.73,4.69l-1.91,2s-9.34-9.12-19.58,0" transform="translate(-6.78 -10.82)" fill="#fff"/></g><g id="icon-5"><path d="M476.05,389.75a26,26,0,1,1-18.58-31.67,26,26,0,0,1,18.58,31.67" transform="translate(-6.78 -10.82)" fill="#174a97" fill-rule="evenodd"/><path d="M456.21,381.78l-9.21-2.4a.88.88,0,0,0-1.07.63l-3.08,11.84a3.81,3.81,0,0,0,2.73,4.65l3.52.92a3.81,3.81,0,0,0,4.65-2.73l3.09-11.85a.87.87,0,0,0-.63-1.06m-5,8.36-3.85-1,.45-1.74,3.85,1Zm1-3.75-3.85-1,.45-1.74,3.85,1Z" transform="translate(-6.78 -10.82)" fill="#fff"/><path d="M446.91,376.24l-1.34-2.38s4.05-2.32,8.06-1.06a10.68,10.68,0,0,1,6.44,4.88l-2.25,1.4s-3.9-6.6-10.91-2.84" transform="translate(-6.78 -10.82)" fill="#fff"/><path d="M444.21,371.6l-1.34-2.34s6-3.45,12.08-1.53,7.95,4.58,9.81,7.23l-2.27,1.4s-6.5-10.78-18.28-4.76" transform="translate(-6.78 -10.82)" fill="#fff"/></g><g id="icon-6"><path d="M402.44,345.12a29.73,29.73,0,1,1-22.21-35.7,29.74,29.74,0,0,1,22.21,35.7" transform="translate(-6.78 -10.82)" fill="#6ba443" fill-rule="evenodd"/><path d="M386.11,353.53c-.39-1.7-.85-3.39-1.28-5.09l-6.57-25.81c-.21-.82-.3-1.77-1.36-2s-1.5.57-2,1.18c-2.29,2.65-4.55,5.32-6.83,8L356.6,343.15c-.88,1-1.78,2-2.59,3.09a1.68,1.68,0,0,0,1,2.86l.71.17,13.84,3.22q7.13,1.67,14.24,3.31c1.74.4,2.71-.55,2.31-2.27m-13.46-24a2.14,2.14,0,1,1,4.17.95c-.41,1.81-.84,3.61-1.26,5.42-.2.87-.41,1.75-.61,2.63s-.41,1.75-.62,2.62a2.14,2.14,0,1,1-4.17-.94l2.49-10.68m-2.41,19.56a2.31,2.31,0,1,1,2.81-1.67,2.3,2.3,0,0,1-2.81,1.67" transform="translate(-6.78 -10.82)" fill="#fff"/></g><g id="icon-7"><path d="M292.22,329.13a21.84,21.84,0,1,1-25.28-17.75,21.85,21.85,0,0,1,25.28,17.75" transform="translate(-6.78 -10.82)" fill="#f27c26" fill-rule="evenodd"/><path d="M272,341.34c-2.42-2.6-4.78-5.17-7.19-7.7a7.49,7.49,0,0,1-2.12-4.53,7.1,7.1,0,0,1,5.47-7.48,6.81,6.81,0,0,1,7.13,2.48,6.89,6.89,0,0,1,.88,7.49q-2,4.62-3.95,9.25c-.07.14-.13.29-.22.49m-1.58-9.16a3.7,3.7,0,1,0-4.3-3,3.69,3.69,0,0,0,4.3,3" transform="translate(-6.78 -10.82)" fill="#fff"/><path d="M269.76,340.44c-1.87.82-2.3,1.09-2.72,1.68,1.46.81,8.67-.42,10-1.75a6.86,6.86,0,0,0-3-.65c.1-.82.19-1,1-1a9.27,9.27,0,0,1,2.17.17,1.59,1.59,0,0,1,.79,2.9,9.17,9.17,0,0,1-4.6,2.29,12.62,12.62,0,0,1-5.83.07,4.57,4.57,0,0,1-1.46-.65,1.44,1.44,0,0,1-.18-2.36,5.65,5.65,0,0,1,2.82-1.39c.24-.05.61.37,1,.65" transform="translate(-6.78 -10.82)" fill="#fff"/></g><g id="icon-8"><path d="M511.28,259.1a18.81,18.81,0,1,1-15.72-21.46,18.8,18.8,0,0,1,15.72,21.46" transform="translate(-6.78 -10.82)" fill="#f27c26" fill-rule="evenodd"/><path d="M491.43,263.48c-1.26-2.79-2.48-5.54-3.74-8.27a6.37,6.37,0,0,1-.48-4.27,6.12,6.12,0,0,1,6.52-4.6,5.87,5.87,0,0,1,5.13,4,5.93,5.93,0,0,1-1.34,6.36c-1.94,2.14-3.86,4.3-5.78,6.45l-.31.34m1.24-7.91a3.18,3.18,0,1,0-2.68-3.66,3.18,3.18,0,0,0,2.68,3.66" transform="translate(-6.78 -10.82)" fill="#fff"/><path d="M489.84,262.13c-1.75.15-2.18.25-2.69.62,1,1.07,7.19,2.05,8.63,1.32a5.86,5.86,0,0,0-2.24-1.34c.3-.65.42-.73,1.06-.52a8,8,0,0,1,1.72.74,1.37,1.37,0,0,1-.15,2.58,7.87,7.87,0,0,1-4.39.6,10.8,10.8,0,0,1-4.77-1.55,4.07,4.07,0,0,1-1-.93,1.24,1.24,0,0,1,.51-2,4.82,4.82,0,0,1,2.67-.35c.22,0,.4.47.66.81" transform="translate(-6.78 -10.82)" fill="#fff"/></g><g id="icon-9"><path d="M451.66,251.83a23.95,23.95,0,1,1-30.73-14.25,23.95,23.95,0,0,1,30.73,14.25" transform="translate(-6.78 -10.82)" fill="#174a97" fill-rule="evenodd"/><path d="M445.4,264.29c-1.06-1-2.16-2-3.24-3q-8.25-7.55-16.5-15.1c-.52-.48-1-1.1-1.87-.78s-.79,1.09-.88,1.77c-.39,2.91-.75,5.82-1.13,8.74q-.94,7.32-1.88,14.65c-.15,1.12-.32,2.24-.39,3.36-.09,1.29.79,1.93,2,1.55l.57-.21,11.21-4.11L444.83,267c1.4-.51,1.65-1.63.57-2.66m-20.49-10.65a1.79,1.79,0,1,1,3.36-1.25c.55,1.46,1.08,2.92,1.61,4.38l.78,2.13.78,2.13a1.67,1.67,0,0,1-1,2.4,1.65,1.65,0,0,1-2.33-1.14c-1.06-2.88-2.12-5.77-3.17-8.65m7.31,14.85a1.94,1.94,0,1,1,1.2-2.46,1.93,1.93,0,0,1-1.2,2.46" transform="translate(-6.78 -10.82)" fill="#fff"/></g><g id="icon-10"><path d="M337.26,270.42a18,18,0,1,1-13.19-21.76,18,18,0,0,1,13.19,21.76" transform="translate(-6.78 -10.82)" fill="#174a97" fill-rule="evenodd"/><path d="M318,272.94c-1-2.77-1.9-5.49-2.88-8.19a6.26,6.26,0,0,1-.1-4.12,5.86,5.86,0,0,1,6.61-3.83A5.86,5.86,0,0,1,324.34,267c-2,1.87-4,3.77-6,5.66l-.32.3m1.84-7.44a3,3,0,0,0,3.67-2.26,3,3,0,0,0-5.91-1.45,3,3,0,0,0,2.24,3.71" transform="translate(-6.78 -10.82)" fill="#fff"/><path d="M316.58,271.51c-1.68,0-2.1.06-2.62.37.84,1.1,6.68,2.55,8.11,2a5.63,5.63,0,0,0-2-1.47c.34-.58.46-.66,1.06-.4a7.68,7.68,0,0,1,1.57.85,1.31,1.31,0,0,1-.36,2.45,7.61,7.61,0,0,1-4.23.2,10.29,10.29,0,0,1-4.42-1.88,3.54,3.54,0,0,1-.88-1,1.18,1.18,0,0,1,.65-1.84,4.62,4.62,0,0,1,2.58-.11c.2,0,.33.48.56.82" transform="translate(-6.78 -10.82)" fill="#fff"/></g><g id="icon-11"><path d="M396.08,210.8a23.39,23.39,0,1,1-23.39-23.39,23.39,23.39,0,0,1,23.39,23.39" transform="translate(-6.78 -10.82)" fill="#f27c26" fill-rule="evenodd"/><path d="M369.25,215.86a1.44,1.44,0,0,1-1.08-2.43l.16-.16q7.55-7.54,15.08-15.08a1.45,1.45,0,1,1,2.14,1.95c-.94,1-1.89,1.91-2.84,2.86l-12.24,12.27a1.61,1.61,0,0,1-1.22.59" transform="translate(-6.78 -10.82)" fill="#fff"/><path d="M365.76,224a1.2,1.2,0,0,1-1.1-1.76c.59-1.14,1.22-2.27,1.84-3.39a.82.82,0,0,1,1.51.63c-.32,1.17-.63,2.35-1,3.53a1.21,1.21,0,0,1-1.28,1" transform="translate(-6.78 -10.82)" fill="#fff"/><path d="M365.79,204.58a1.17,1.17,0,0,1,1.18.87c.36,1.21.7,2.42,1,3.64a.78.78,0,0,1-.44,1,.76.76,0,0,1-1-.37c-.66-1.11-1.33-2.21-1.94-3.34a1.26,1.26,0,0,1,1.15-1.82" transform="translate(-6.78 -10.82)" fill="#fff"/><path d="M359.58,217.8a1.19,1.19,0,0,1,.94-1.25l3.34-.94a2.45,2.45,0,0,1,.37-.08.76.76,0,0,1,.83.44.73.73,0,0,1-.18.91,2.87,2.87,0,0,1-.54.37c-1,.55-1.91,1.11-2.89,1.63a1.24,1.24,0,0,1-1.87-1.08" transform="translate(-6.78 -10.82)" fill="#fff"/><path d="M379,217.77a1.25,1.25,0,0,1-1.79,1.15c-1.15-.6-2.28-1.24-3.41-1.88a.81.81,0,0,1,.5-1.49,6,6,0,0,1,.82.18l3,.83a1.14,1.14,0,0,1,.91,1.21" transform="translate(-6.78 -10.82)" fill="#fff"/><path d="M360.82,209.49a4.31,4.31,0,0,1,.6.22c1.08.58,2.15,1.17,3.22,1.76a.75.75,0,0,1,.45,1,.81.81,0,0,1-1,.53c-1.23-.32-2.46-.64-3.68-1a1.18,1.18,0,0,1-.86-1.3,1.36,1.36,0,0,1,1.29-1.2" transform="translate(-6.78 -10.82)" fill="#fff"/><path d="M372.81,224a1.19,1.19,0,0,1-1.19-.82c-.37-1.24-.72-2.49-1.07-3.74a.76.76,0,0,1,.94-1,1,1,0,0,1,.53.4c.64,1.1,1.27,2.21,1.88,3.32a1.24,1.24,0,0,1-1.09,1.81" transform="translate(-6.78 -10.82)" fill="#fff"/></g><g id="icon-12"><path d="M437.3,172.27a13.42,13.42,0,1,1-13.42-13.42,13.41,13.41,0,0,1,13.42,13.42" transform="translate(-6.78 -10.82)" fill="#174a97" fill-rule="evenodd"/><path d="M426.34,170.87h-4.92a.45.45,0,0,0-.45.45v6.32a2,2,0,0,0,2,2h1.88a2,2,0,0,0,2-2v-6.32a.45.45,0,0,0-.45-.45m-1.43,4.83h-2.06v-.93h2.06Zm0-2h-2.06v-.93h2.06Z" transform="translate(-6.78 -10.82)" fill="#fff"/><path d="M421,169.31l-1-1a5.86,5.86,0,0,1,3.9-1.58,5.5,5.5,0,0,1,3.85,1.6l-.94,1a4.11,4.11,0,0,0-5.82,0" transform="translate(-6.78 -10.82)" fill="#fff"/><path d="M419,167.34l-1-1a8.73,8.73,0,0,1,5.84-2.34,8.44,8.44,0,0,1,5.85,2.34l-1,1s-4.65-4.55-9.76,0" transform="translate(-6.78 -10.82)" fill="#fff"/></g></svg>